
<svg xmlns="http://www.w3.org/2000/svg" version="1.1" xmlns:xlink="http://www.w3.org/1999/xlink" preserveAspectRatio="none" x="0px" y="0px" width="100px" height="100px" viewBox="0 0 100 100">
<defs>
<filter id="Filter_1" x="-20%" y="-20%" width="140%" height="140%" color-interpolation-filters="sRGB">
<feColorMatrix in="SourceGraphic" type="matrix" values="1 0 0 0 0 0 1 0 0 0 0 0 1 0 0 0 0 0 0.25 0" result="result1"/>
</filter>

<g id="Ninja_25_Layer10_0_FILL">
<path fill="#7A5557" stroke="none" d="
M 38.05 4.2
L 35.75 3.65 14.6 95.75 16.95 96.3 38.05 4.2 Z"/>
</g>

<g id="Ninja_ai_Layer_1__Path__1_0_Layer0_0_FILL">
<path fill="#000000" stroke="none" d="
M 15.7 5.9
Q 16.3 2.5 13.7 0.05 9.85 -0.1 6.45 1.9 4.7 2.95 2.25 7.45 0.05 11.6 0 12.85 -0.1 16.8 1.8 19.95
L 13.5 9.85
Q 15.35 8.25 15.7 5.9 Z"/>
</g>

<g id="Ninja_25_Layer9_1_FILL">
<path fill="#484759" stroke="none" d="
M 68.8 46.3
Q 67.25 43.2 64.4 41.3 64.8 40.35 64.8 39.4 64.8 37.35 63.25 35.85 61.7 34.4 59.55 34.4 57.4 34.4 55.9 35.85 54.35 37.3 54.3 39.3 52.1 39.75 50.2 40.9 48.45 41.95 46 46.45 43.8 50.6 43.75 51.85 43.6 56.15 46.05 59.7 48.5 63.35 52.65 64.8 56.95 66.3 61.25 64.85 63.1 64.25 66.75 58.95 70.2 53.95 70.25 52.75 70.35 49.35 68.8 46.3 Z"/>
</g>

<g id="Ninja_25_Layer8_0_FILL">
<path fill="#484759" stroke="none" d="
M 84.95 47.3
Q 85.85 44.7 84.65 42.25 83.45 39.8 80.85 38.9 78.95 38.2 77 38.75
L 63.6 41.8
Q 60.25 42.8 59.2 46 58.3 48.6 59.5 51.05 60.65 53.55 63.25 54.45 64.9 55.05 66.7 54.7
L 81.2 51.3
Q 83.95 50.15 84.95 47.3 Z"/>
</g>

<g id="Ninja_25_Layer7_0_FILL">
<path fill="#363543" stroke="none" d="
M 75.5 58.55
Q 75.9 56.55 74.75 54.85 73.6 53.15 71.6 52.75 70.75 52.55 69.9 52.7
L 56.6 52.9
Q 54.55 53.15 53 54.6 51.4 56.05 51 58.15 50.5 60.85 52 63.15 53.55 65.45 56.25 65.95 57.3 66.15 58.45 66
L 71.35 62.55
Q 72.9 62.3 74.05 61.25 75.2 60.15 75.5 58.55 Z"/>
</g>

<g id="Ninja_25_Layer7_1_FILL">
<path fill="#363543" stroke="none" d="
M 75.35 59.25
Q 76.05 57.3 75.15 55.45 74.25 53.6 72.3 52.9 70.35 52.25 68.5 53.15 66.65 54.05 65.95 56
L 63.25 64.25 66.15 69.2 73.3 61.85 73.3 61.8
Q 74.8 60.9 75.35 59.25 Z"/>
</g>

<g id="Ninja_25_Layer7_2_FILL">
<path fill="#24242D" stroke="none" d="
M 66.3 68.85
L 66.4 68.65
Q 66.85 67.35 66.2 66.05 65.65 64.85 64.35 64.4 63.05 64 61.8 64.6 60.55 65.2 60.1 66.45 59.65 67.9 60.3 69.1
L 63.4 76.6 63.75 76.95
Q 64.1 77.3 64.35 77.4 65 77.65 65.65 77.35 66.3 77.05 66.5 76.4
L 66.55 75.8 66.3 68.85 Z"/>
</g>

<g id="RLeg_0_Layer0_0_FILL">
<path fill="#484759" stroke="none" d="
M 42.35 70.25
Q 41.95 71.75 42.45 73.25 42.95 74.8 44.25 75.7 45.95 76.9 47.95 76.55 50 76.2 51.2 74.5 51.75 73.75 51.95 72.95
L 57.2 60.75
Q 57.8 58.75 57.15 56.75 56.45 54.75 54.65 53.5 52.45 51.95 49.75 52.4 47.05 52.85 45.45 55.05 44.8 56 44.5 57.05
L 42.35 70.25 Z"/>
</g>

<g id="RKnee_0_Layer0_0_FILL">
<path fill="#484759" stroke="none" d="
M 51.95 72
Q 52.2 70 50.95 68.35 49.75 66.7 47.7 66.4 45.65 66.1 44 67.35 42.35 68.6 42.05 70.65
L 41 79.25 44.8 83.55 50.4 74.95
Q 51.65 73.8 51.95 72 Z"/>
</g>

<g id="RFoot_0_Layer0_0_FILL">
<path fill="#363543" stroke="none" d="
M 40.45 78.6
Q 39.35 79.6 39.35 81
L 38.35 89.05 38.45 89.5
Q 38.6 90.05 38.8 90.25 39.25 90.75 39.95 90.8 40.65 90.85 41.15 90.4
L 41.5 89.9 44.7 83.7 44.85 83.6
Q 45.85 82.65 45.95 81.25 46.05 79.85 45.15 78.9 44.2 77.9 42.85 77.8 41.5 77.7 40.45 78.6 Z"/>
</g>

<g id="Ninja_25_Layer3_0_FILL">
<path fill="#24242D" stroke="none" d="
M 72.9 35.2
Q 75.9 30.25 76.6 24.75 77.35 19.25 75.35 16.35 73.4 13.45 69.9 14.95 66.4 16.4 63.45 21.35 60.45 26.25 59.75 31.8 59 37.3 60.95 40.2 62.95 43.1 66.45 41.6 69.95 40.15 72.9 35.2 Z"/>
</g>

<g id="Ninja_25_Layer3_1_FILL">
<path fill="#363543" stroke="none" d="
M 74.35 32.05
Q 76.15 26.9 73.75 21.95 71.4 17 66.2 15.2 61 13.4 56.05 15.8 51.1 18.2 49.3 23.4 47.5 28.55 49.9 33.5 52.3 38.45 57.5 40.25 62.7 42.05 67.6 39.65 72.55 37.25 74.35 32.05 Z"/>
</g>

<g id="Ninja_25_Layer3_2_FILL">
<path fill="#BFBFBF" stroke="none" d="
M 75 26.15
Q 73.15 26.3 70.25 26.05 68.45 25.9 66.2 25.15
L 64.35 24.4 63.35 28.05
Q 63.05 29.05 63.7 30.2 64.35 31.4 65.45 31.85 66.95 32.45 68.45 32.65 71.7 33.2 73.35 32.65 74.2 32.4 74.35 32.05 75.4 29.15 75 26.15 Z"/>
</g>

<g id="Ninja_25_Layer3_3_FILL">
<path fill="#484759" stroke="none" d="
M 75.35 16.35
Q 74.1 14.45 72 14.45 70 14.45 67.75 16.25 65.4 18.1 63.45 21.35 60.45 26.25 59.75 31.8 59 37.3 60.95 40.2 62.3 42.05 64.3 42.05 66.35 42.05 68.6 40.3 70.95 38.45 72.9 35.2 75.9 30.25 76.6 24.75 77.35 19.25 75.35 16.35
M 67.9 16.75
Q 70.1 14.95 72 14.95 73.8 14.95 74.95 16.65 76.85 19.4 76.1 24.75 75.4 30.15 72.5 34.95 70.65 38.05 68.45 39.8 66.25 41.55 64.3 41.55 62.55 41.55 61.4 39.9 59.5 37.15 60.25 31.8 60.95 26.4 63.85 21.6 65.7 18.55 67.9 16.75 Z"/>
</g>

<g id="Ninja_25_Layer3_4_FILL">
<path fill="#484759" stroke="none" d="
M 63.45 21.35
Q 65.8 17.45 68.6 15.6 70.844140625 14.1974609375 72.65 14.5 67.8923828125 12.9744140625 62.9 12.05 52.05 10.05 50.7 13.4 46.6 23.55 48.5 30.75 50.35 37.75 57.5 40.25 61 41.55 63.8 42.05
L 64.05 42.05
Q 62.2 41.95 60.95 40.2 59 37.3 59.75 31.8 60.45 26.25 63.45 21.35 Z"/>
</g>

<g id="Ninja_25_Layer2_0_FILL">
<path fill="#24242D" stroke="none" d="
M 50.05 48.25
L 45.9 46.65 43.75 51.85 48.5 53.3
Q 53.9 54.75 57 54.8 62 54.9 70.25 52.75
L 69.7 48.5
Q 61.9 50.15 57.45 50 54.7 49.9 50.05 48.25 Z"/>
</g>

<g id="Ninja_25_Layer1_0_FILL">
<path fill="#484759" stroke="none" d="
M 55.1 37.6
Q 52.9 36.85 50.8 37.55
L 29.6 43.7 35.65 61.95 56.35 49.5
Q 58.35 48.35 59.2 46 60.1 43.4 58.9 40.95 57.7 38.5 55.1 37.6 Z"/>
</g>

<g id="Ninja_25_Layer1_1_MEMBER_0_FILL">
<path fill="#24242D" stroke="none" d="
M 33.15 48.2
Q 31.65 44.95 30.45 43.95 29.25 43 29.05 44.9 28.85 46.8 29.8 50.45 30.75 54.15 32.25 57.4 33.75 60.7 34.95 61.65 36.15 62.65 36.35 60.75 36.55 58.8 35.6 55.15 34.65 51.5 33.15 48.2 Z"/>
</g>

<g id="Ninja_25_Layer1_1_MEMBER_1_FILL">
<path fill="#484759" stroke="none" d="
M 30.45 43.95
Q 30.1 43.65 29.75 43.65 29.05 43.65 29.05 45.5 29.05 47.45 29.8 50.45 30.75 54.15 32.25 57.4 33.75 60.7 34.95 61.65 35.35 61.95 35.65 61.95 36.4 61.95 36.4 60.1 36.4 58.2 35.6 55.15 34.65 51.5 33.15 48.2 31.65 44.95 30.45 43.95
M 29.55 45.75
Q 29.5 44.35 29.75 44.15 29.9 44.15 30.1 44.35 31.25 45.25 32.7 48.5 34.2 51.75 35.1 55.25 35.8 58.05 35.85 59.85 35.9 61.25 35.65 61.45 35.5 61.45 35.25 61.25 34.15 60.35 32.7 57.1 31.2 53.85 30.3 50.35 29.6 47.55 29.55 45.75 Z"/>
</g>

<g id="Ninja_25_Layer1_2_FILL">
<path fill="#BFBFBF" stroke="none" d="
M 33.5 49.4
Q 32.35 46.9 29.75 46 27.15 45.1 24.65 46.3 22.2 47.5 21.3 50.1 20.4 52.7 21.6 55.15 22.8 57.65 25.4 58.55 28 59.45 30.45 58.25 32.9 57.05 33.8 54.45 34.7 51.85 33.5 49.4 Z"/>
</g>

<g id="Ninja_25_Layer0_0_FILL">
<path fill="#484759" stroke="none" d="
M 85.05 43.35
Q 84.45 41.35 82.8 40.05
L 78.5 36.95 78.55 54.45 83.55 49.8
Q 84.5 48.75 84.95 47.45 85.65 45.4 85.05 43.35 Z"/>
</g>

<g id="Ninja_25_Layer0_1_MEMBER_0_FILL">
<path fill="#24242D" stroke="none" d="
M 81.35 49
Q 82.25 45 81.05 41.15 79.85 37.3 77.25 35.9 74.65 34.5 72.2 36.4 69.75 38.25 68.85 42.3 67.95 46.35 69.15 50.15 70.35 53.95 72.95 55.35 75.55 56.8 78 54.9 80.45 53.05 81.35 49 Z"/>
</g>

<g id="Ninja_25_Layer0_1_MEMBER_1_FILL">
<path fill="#484759" stroke="none" d="
M 81.35 49
Q 82.25 45 81.05 41.15 79.85 37.3 77.25 35.9 76.15 35.35 75.1 35.35 73 35.35 71.3 37.2 69.55 39.1 68.85 42.3 67.95 46.35 69.15 50.15 70.35 53.95 72.95 55.35 74 55.95 75.1 55.95 77.2 55.95 78.9 54.05 80.65 52.15 81.35 49
M 71.55 37.65
Q 73.15 35.85 75.1 35.85 76.1 35.85 77.05 36.35 79.5 37.65 80.6 41.35 81.7 45.05 80.85 48.9 80.2 51.85 78.65 53.65 77.05 55.45 75.1 55.45 74.25 55.45 73.15 54.95 70.7 53.6 69.6 49.95 68.45 46.25 69.3 42.4 70 39.45 71.55 37.65 Z"/>
</g>

<g id="Ninja_25_Layer0_2_FILL">
<path fill="#BFBFBF" stroke="none" d="
M 80.05 44.55
Q 80.9 41.95 79.75 39.5 78.55 37 75.95 36.1 73.35 35.2 70.85 36.4 68.4 37.6 67.5 40.2 66.6 42.8 67.8 45.25 69 47.75 71.6 48.65 74.2 49.55 76.65 48.35 79.15 47.15 80.05 44.55 Z"/>
</g>
</defs>

<g transform="matrix( 1.5439605712890625, 0, 0, 1.5439605712890625, -18.8,-12.65) ">
<g transform="matrix( 1, 0, 0, 1, -14.6,-3.65) ">
<use xlink:href="#Ninja_25_Layer10_0_FILL"/>
</g>

<g transform="matrix( 1, 0, 0, 1, 29.15,35.35) ">
<g transform="matrix( 1, 0, 0, 1, 0,0) ">
<use filter="url(#Filter_1)" xlink:href="#Ninja_ai_Layer_1__Path__1_0_Layer0_0_FILL"/>
</g>
</g>

<g transform="matrix( 1, 0, 0, 1, -14.6,-3.65) ">
<use xlink:href="#Ninja_25_Layer9_1_FILL"/>
</g>

<g transform="matrix( 1, 0, 0, 1, -14.6,-3.65) ">
<use xlink:href="#Ninja_25_Layer8_0_FILL"/>
</g>

<g transform="matrix( 1, 0, 0, 1, -14.6,-3.65) ">
<use xlink:href="#Ninja_25_Layer7_0_FILL"/>
</g>

<g transform="matrix( 1, 0, 0, 1, -14.6,-3.65) ">
<use xlink:href="#Ninja_25_Layer7_1_FILL"/>
</g>

<g transform="matrix( 1, 0, 0, 1, -14.6,-3.65) ">
<use xlink:href="#Ninja_25_Layer7_2_FILL"/>
</g>

<g transform="matrix( 1, 0, 0, 1, 40.2,60.8) ">
<g transform="matrix( 1, 0, 0, 1, -54.8,-64.45) ">
<use xlink:href="#RLeg_0_Layer0_0_FILL"/>
</g>
</g>

<g transform="matrix( 1, 0, 0, 1, 31.9,71.3) ">
<g transform="matrix( 1, 0, 0, 1, -46.5,-74.95) ">
<use xlink:href="#RKnee_0_Layer0_0_FILL"/>
</g>
</g>

<g transform="matrix( 1, 0, 0, 1, 27.55,80.65) ">
<g transform="matrix( 1, 0, 0, 1, -42.15,-84.3) ">
<use xlink:href="#RFoot_0_Layer0_0_FILL"/>
</g>
</g>

<g transform="matrix( 1, 0, 0, 1, -14.6,-3.65) ">
<use xlink:href="#Ninja_25_Layer3_0_FILL"/>
</g>

<g transform="matrix( 1, 0, 0, 1, -14.6,-3.65) ">
<use xlink:href="#Ninja_25_Layer3_1_FILL"/>
</g>

<g transform="matrix( 1, 0, 0, 1, -14.6,-3.65) ">
<use xlink:href="#Ninja_25_Layer3_2_FILL"/>
</g>

<g transform="matrix( 1, 0, 0, 1, -14.6,-3.65) ">
<use xlink:href="#Ninja_25_Layer3_3_FILL"/>
</g>

<g transform="matrix( 1, 0, 0, 1, -14.6,-3.65) ">
<use xlink:href="#Ninja_25_Layer3_4_FILL"/>
</g>

<g transform="matrix( 1, 0, 0, 1, -14.6,-3.65) ">
<use xlink:href="#Ninja_25_Layer2_0_FILL"/>
</g>

<g transform="matrix( 1, 0, 0, 1, -14.6,-3.65) ">
<use xlink:href="#Ninja_25_Layer1_0_FILL"/>
</g>

<g transform="matrix( 1, 0, 0, 1, -14.6,-3.65) ">
<use xlink:href="#Ninja_25_Layer1_1_MEMBER_0_FILL"/>
</g>

<g transform="matrix( 1, 0, 0, 1, -14.6,-3.65) ">
<use xlink:href="#Ninja_25_Layer1_1_MEMBER_1_FILL"/>
</g>

<g transform="matrix( 1, 0, 0, 1, -14.6,-3.65) ">
<use xlink:href="#Ninja_25_Layer1_2_FILL"/>
</g>

<g transform="matrix( 1, 0, 0, 1, -14.6,-3.65) ">
<use xlink:href="#Ninja_25_Layer0_0_FILL"/>
</g>

<g transform="matrix( 1, 0, 0, 1, -14.6,-3.65) ">
<use xlink:href="#Ninja_25_Layer0_1_MEMBER_0_FILL"/>
</g>

<g transform="matrix( 1, 0, 0, 1, -14.6,-3.65) ">
<use xlink:href="#Ninja_25_Layer0_1_MEMBER_1_FILL"/>
</g>

<g transform="matrix( 1, 0, 0, 1, -14.6,-3.65) ">
<use xlink:href="#Ninja_25_Layer0_2_FILL"/>
</g>
</g>
</svg>
