
<svg xmlns="http://www.w3.org/2000/svg" version="1.1" xmlns:xlink="http://www.w3.org/1999/xlink" preserveAspectRatio="none" x="0px" y="0px" width="100px" height="100px" viewBox="0 0 100 100">
<defs>
<g id="Witch_1_Layer9_0_FILL">
<path fill="#2B2847" stroke="none" d="
M 51.4 48.25
Q 48.8 47.35 46.1 48.4 43.15 49.6 41.95 52.5 40.7 55.45 41.9 58.35
L 41.95 58.4
Q 42.65 60.25 44.7 61.6
L 51.05 65.8 59.35 57.55 55.2 51.35
Q 53.55 48.95 51.4 48.25 Z"/>
</g>

<g id="Witch_1_Layer9_1_FILL">
<path fill="#A9B5A8" stroke="none" d="
M 64.4 71.9
Q 65.65 71 65.95 69.45 66.2 67.9 65.35 66.6
L 59.35 57.55 51.05 65.8 59.55 71.45
Q 62.3 73.25 64.4 71.9 Z"/>
</g>

<g id="Witch_1_Layer8_0_FILL">
<path fill="#A9B5A8" stroke="none" d="
M 61.3 38.45
Q 59.55 36.25 57.2 35.7 54.5 35.05 51.95 36.4 49.2 37.85 48.25 40.9 47.3 43.95 48.75 46.7
L 48.8 46.75
Q 49.75 48.6 51.85 49.65
L 67.6 58
Q 70.45 59.65 72.5 57.95 73.65 57 73.75 55.4 73.85 53.85 72.9 52.6
L 61.3 38.45 Z"/>
</g>

<g id="Witch_1_Layer8_1_FILL">
<path fill="#2B2847" stroke="none" d="
M 70.05 49.1
L 61.3 38.45
Q 59.55 36.25 57.2 35.7 54.5 35.05 51.95 36.4 49.15 37.85 48.2 40.9 47.3 43.9 48.75 46.7
L 48.8 46.75
Q 49.75 48.6 51.85 49.65
L 64.85 58.55 70.05 49.1 Z"/>
</g>

<g id="Witch_1_Layer7_0_FILL">
<path fill="#5B5E3E" stroke="none" d="
M 33.6 55.2
L 33.6 57.3 79.35 57.3 79.35 53.5 33.6 53.5
Q 33.6 54.35 33.6 55.2 Z"/>

<path fill="#84B589" stroke="none" d="
M 8.75 47.9
Q 7.85 48.2 6.95 48.6 2.95 50.15 0 51.95
L 4.8 55.9
Q 5.25 56.3 5.7 56.65 8.55 58.8 11.35 60.4 14.05 61.95 16.45 62.7 17.25 62.95 18.1 63.15 23.45 64.35 27.6 63.2 28.5 62.9 29.3 62.55 32.5 61.2 33.3 58.95 33.5697265625 58.1857421875 33.6 57.3
L 33.6 55.2
Q 33.6 54.35 33.6 53.5 33.6 53.4 33.6 53.3 33.5 50.75 32.05 48.95 31.5 48.25 30.7 47.65 27.95 45.65 22.85 45.35 21.9 45.3 20.9 45.3 15.75 45.35 8.75 47.9 Z"/>
</g>

<g id="Witch_1_Layer7_1_FILL">
<path fill="#5B5E3E" stroke="none" d="
M 33.6 55.2
L 33.6 57.3 79.35 57.3 79.35 53.5 33.6 53.5
Q 33.6 54.35 33.6 55.2 Z"/>

<path fill="#84B589" stroke="none" d="
M 8.75 47.9
Q 7.85 48.2 6.95 48.6 2.95 50.15 0 51.95
L 4.8 55.9
Q 5.25 56.3 5.7 56.65 8.55 58.8 11.35 60.4 14.05 61.95 16.45 62.7 17.25 62.95 18.1 63.15 23.45 64.35 27.6 63.2 28.5 62.9 29.3 62.55 32.5 61.2 33.3 58.95 33.5697265625 58.1857421875 33.6 57.3
L 33.6 55.2
Q 33.6 54.35 33.6 53.5 33.6 53.4 33.6 53.3 33.5 50.75 32.05 48.95 31.5 48.25 30.7 47.65 27.95 45.65 22.85 45.35 21.9 45.3 20.9 45.3 15.75 45.35 8.75 47.9 Z"/>
</g>

<g id="Witch_1_Layer6_0_FILL">
<path fill="#3D3A66" stroke="none" d="
M 59.95 41.65
Q 59.3 36.55 55.95 35.15 52.6 33.7 48.5 36.85 44.4 39.95 41.95 45.8 39.5 51.6 40.15 56.7 40.8 61.85 44.15 63.25 47.5 64.65 51.6 61.55 55.7 58.4 58.15 52.6 60.6 46.8 59.95 41.65 Z"/>
</g>

<g id="Witch_1_Layer5_0_FILL">
<path fill="#3D3A66" stroke="none" d="
M 48.55 48.7
Q 45.95 47.75 43.25 48.85 40.35 50.05 39.1 52.95 37.9 55.9 39.1 58.8
L 39.1 58.85
Q 39.9 60.75 41.85 62.05
L 48.25 66.25 56.5 58 52.35 51.8
Q 50.8 49.4 48.55 48.7 Z"/>
</g>

<g id="Witch_1_Layer5_1_FILL">
<path fill="#C7D4C6" stroke="none" d="
M 61.6 72.3
Q 62.85 71.45 63.15 69.9 63.4 68.35 62.55 67
L 56.5 58 48.25 66.25 56.7 71.9
Q 59.5 73.75 61.6 72.3 Z"/>
</g>

<g id="Witch_1_Layer4_0_FILL">
<path fill="#C7D4C6" stroke="none" d="
M 75.5 27.8
Q 77.95 21.95 75.55 16.1 73.15 10.3 67.35 7.8 61.55 5.35 55.7 7.75 49.85 10.15 47.4 15.95 44.95 21.8 47.3 27.65 49.7 33.45 55.55 35.95 61.35 38.4 67.2 36 73.05 33.6 75.5 27.8 Z"/>
</g>

<g id="Witch_1_Layer3_0_FILL">
<path fill="#C7D4C6" stroke="none" d="
M 58.25 37.65
Q 56.45 35.45 54.15 34.95 51.45 34.3 48.9 35.6 46.1 37.1 45.2 40.1 44.25 43.15 45.75 45.95 46.6 47.7 48.8 48.9
L 64.55 57.25
Q 67.5 58.8 69.45 57.2 70.6 56.25 70.75 54.65 70.85 53.05 69.9 51.85
L 58.25 37.65 Z"/>
</g>

<g id="Witch_1_Layer3_1_FILL">
<path fill="#3D3A66" stroke="none" d="
M 67.05 48.35
L 58.25 37.65
Q 56.45 35.45 54.15 34.95 51.45 34.3 48.9 35.6 46.1 37.05 45.2 40.1 44.25 43.15 45.75 45.95 46.65 47.75 48.8 48.85
L 61.8 57.8 67.05 48.35 Z"/>
</g>

<g id="Witch_1_Layer2_0_FILL">
<path fill="#3D3A66" stroke="none" d="
M 46.45 37.8
Q 46.2 38.1 45.95 38.35 41.6 44.85 36.4 50.25 31.25 55.65 25.1 60.05 31.1 63 37.3 64.6 42.65 65.95 48.1 66.25 48.5 65.65 48.9 65
L 57.8 45.85 57.2 45.3 46.45 37.8 Z"/>
</g>

<g id="Witch_1_Layer1_0_FILL">
<path fill="#8CFFB3" stroke="none" d="
M 45.3 21.45
Q 43.8 22.95 42 24.4 39.3 27 35.95 29.35 33.05 31.35 29.55 33.2 29.05 33.5 28.2 33.9 25.4 35.2 20.25 37.7 16.5 39.55 10.9 42 11.8 43.85 16.15 43.8 20.25 44.05 27.35 42.8 27.5 42.75 27.6 42.7 37.6 40.95 44.45 37.7 48.45 35.75 51.35 33.35 52.95 32.05 54.6 30.75 60.6 26.25 68.6 22.25 70.75 21.2 72.7 20.35 75.35 19.2 77.55 18.35 75.8 18.45 74 18.55
L 45.3 21.45 Z"/>
</g>

<g id="Witch_1_Layer0_0_FILL">
<path fill="#2B2847" stroke="none" d="
M 85.15 19.75
Q 94.85 18.1 94.75 17.05 94.7 16 84.85 16.2 75 16.4 61.1 17.7 47.25 19.05 37.55 20.7 27.85 22.4 27.95 23.4 28.05 24.45 37.9 24.25 47.75 24.05 61.6 22.75 75.45 21.45 85.15 19.75 Z"/>
</g>

<g id="Witch_1_Layer0_1_FILL">
<path fill="#3D3A66" stroke="none" d="
M 73.15 19.55
Q 78 18.75 77.95 18.2 76.15 13.8 72.4 9.3 65 0.3 55.55 0 46.1 -0.3 33.7 5.2 27.55 7.95 23.25 10.75
L 30.55 10.6
Q 38.25 10.8 40.3 12.55 42.95 14.75 44 18.3 44.55 20.05 44.55 21.35 44.6 21.9 49.5 21.8 54.45 21.7 61.35 21 68.3 20.35 73.15 19.55 Z"/>
</g>
</defs>

<g transform="matrix( 1.3707122802734375, 0, 0, 1.370941162109375, -17.6,0.15) ">
<g transform="matrix( 1, 0, 0, 1, 0,0) ">
<use xlink:href="#Witch_1_Layer9_0_FILL"/>
</g>

<g transform="matrix( 1, 0, 0, 1, 0,0) ">
<use xlink:href="#Witch_1_Layer9_1_FILL"/>
</g>

<g transform="matrix( 1, 0, 0, 1, 0,0) ">
<use xlink:href="#Witch_1_Layer8_0_FILL"/>
</g>

<g transform="matrix( 1, 0, 0, 1, 0,0) ">
<use xlink:href="#Witch_1_Layer8_1_FILL"/>
</g>

<g transform="matrix( 1, 0, 0, 1, 0,0) ">
<use xlink:href="#Witch_1_Layer7_0_FILL"/>
</g>

<g transform="matrix( 1, 0, 0, 1, 0,0) ">
<use xlink:href="#Witch_1_Layer7_1_FILL"/>
</g>

<g transform="matrix( 1, 0, 0, 1, 0,0) ">
<use xlink:href="#Witch_1_Layer6_0_FILL"/>
</g>

<g transform="matrix( 1, 0, 0, 1, 0,0) ">
<use xlink:href="#Witch_1_Layer5_0_FILL"/>
</g>

<g transform="matrix( 1, 0, 0, 1, 0,0) ">
<use xlink:href="#Witch_1_Layer5_1_FILL"/>
</g>

<g transform="matrix( 1, 0, 0, 1, 0,0) ">
<use xlink:href="#Witch_1_Layer4_0_FILL"/>
</g>

<g transform="matrix( 1, 0, 0, 1, 0,0) ">
<use xlink:href="#Witch_1_Layer3_0_FILL"/>
</g>

<g transform="matrix( 1, 0, 0, 1, 0,0) ">
<use xlink:href="#Witch_1_Layer3_1_FILL"/>
</g>

<g transform="matrix( 1, 0, 0, 1, 0,0) ">
<use xlink:href="#Witch_1_Layer2_0_FILL"/>
</g>

<g transform="matrix( 1, 0, 0, 1, 0,0) ">
<use xlink:href="#Witch_1_Layer1_0_FILL"/>
</g>

<g transform="matrix( 1, 0, 0, 1, 0,0) ">
<use xlink:href="#Witch_1_Layer0_0_FILL"/>
</g>

<g transform="matrix( 1, 0, 0, 1, 0,0) ">
<use xlink:href="#Witch_1_Layer0_1_FILL"/>
</g>
</g>
</svg>
