
<svg xmlns="http://www.w3.org/2000/svg" version="1.1" xmlns:xlink="http://www.w3.org/1999/xlink" preserveAspectRatio="none" x="0px" y="0px" width="100px" height="100px" viewBox="0 0 100 100">
<defs>
<g id="Witch_55_Layer9_0_FILL">
<path fill="#2B2847" stroke="none" d="
M 51.4 48.25
Q 48.8 47.35 46.1 48.4 43.15 49.6 41.95 52.5 40.7 55.45 41.9 58.35
L 41.95 58.4
Q 42.65 60.25 44.7 61.6
L 51.05 65.8 59.35 57.55 55.2 51.35
Q 53.55 48.95 51.4 48.25 Z"/>
</g>

<g id="Witch_55_Layer9_1_FILL">
<path fill="#A9B5A8" stroke="none" d="
M 64.4 71.9
Q 65.65 71 65.95 69.45 66.2 67.9 65.35 66.6
L 59.35 57.55 51.05 65.8 59.55 71.45
Q 62.3 73.25 64.4 71.9 Z"/>
</g>

<g id="Witch_55_Layer8_0_FILL">
<path fill="#A9B5A8" stroke="none" d="
M 61.3 38.45
Q 59.55 36.25 57.2 35.7 54.5 35.05 51.95 36.4 49.2 37.85 48.25 40.9 47.3 43.95 48.75 46.7
L 48.8 46.75
Q 49.75 48.6 51.85 49.65
L 67.6 58
Q 70.45 59.65 72.5 57.95 73.65 57 73.75 55.4 73.85 53.85 72.9 52.6
L 61.3 38.45 Z"/>
</g>

<g id="Witch_55_Layer8_1_FILL">
<path fill="#2B2847" stroke="none" d="
M 70.05 49.1
L 61.3 38.45
Q 59.55 36.25 57.2 35.7 54.5 35.05 51.95 36.4 49.15 37.85 48.2 40.9 47.3 43.9 48.75 46.7
L 48.8 46.75
Q 49.75 48.6 51.85 49.65
L 64.85 58.55 70.05 49.1 Z"/>
</g>

<g id="Witch_55_Layer7_0_FILL">
<path fill="#5B5E3E" stroke="none" d="
M 33.6 53.5
L 33.6 57.3 79.35 57.3 79.35 53.5 33.6 53.5 Z"/>

<path fill="#84B589" stroke="none" d="
M 21.1 45.3
Q 15.95 45.35 7.8 48.8 4.5 50.15 -0.1 52.65
L 5.8 57.15
Q 12.7 61.9 17.9 63.1 24.45 64.6 29.15 62.65 33.6 60.8 33.6 57.3
L 33.6 53.5
Q 33.6 49.85 30.85 47.75 27.55 45.25 21.1 45.3 Z"/>
</g>

<g id="Witch_55_Layer6_0_FILL">
<path fill="#3D3A66" stroke="none" d="
M 59.95 41.65
Q 59.3 36.55 55.95 35.15 52.6 33.7 48.5 36.85 44.4 39.95 41.95 45.8 39.5 51.6 40.15 56.7 40.8 61.85 44.15 63.25 47.5 64.65 51.6 61.55 55.7 58.4 58.15 52.6 60.6 46.8 59.95 41.65 Z"/>
</g>

<g id="Witch_55_Layer5_0_FILL">
<path fill="#3D3A66" stroke="none" d="
M 48.55 48.7
Q 45.95 47.75 43.25 48.85 40.35 50.05 39.1 52.95 37.9 55.9 39.1 58.8
L 39.1 58.85
Q 39.9 60.75 41.85 62.05
L 48.25 66.25 56.5 58 52.35 51.8
Q 50.8 49.4 48.55 48.7 Z"/>
</g>

<g id="Witch_55_Layer5_1_FILL">
<path fill="#C7D4C6" stroke="none" d="
M 61.6 72.3
Q 62.85 71.45 63.15 69.9 63.4 68.35 62.55 67
L 56.5 58 48.25 66.25 56.7 71.9
Q 59.5 73.75 61.6 72.3 Z"/>
</g>

<g id="Witch_55_Layer4_0_FILL">
<path fill="#C7D4C6" stroke="none" d="
M 75.5 27.8
Q 77.95 21.95 75.55 16.1 73.15 10.3 67.35 7.8 61.55 5.35 55.7 7.75 49.85 10.15 47.4 15.95 44.95 21.8 47.3 27.65 49.7 33.45 55.55 35.95 61.35 38.4 67.2 36 73.05 33.6 75.5 27.8 Z"/>
</g>

<g id="Witch_55_Layer3_0_FILL">
<path fill="#C7D4C6" stroke="none" d="
M 58.25 37.65
Q 56.45 35.45 54.15 34.95 51.45 34.3 48.9 35.6 46.1 37.1 45.2 40.1 44.25 43.15 45.75 45.95 46.6 47.7 48.8 48.9
L 64.55 57.25
Q 67.5 58.8 69.45 57.2 70.6 56.25 70.75 54.65 70.85 53.05 69.9 51.85
L 58.25 37.65 Z"/>
</g>

<g id="Witch_55_Layer3_1_FILL">
<path fill="#3D3A66" stroke="none" d="
M 67.05 48.35
L 58.25 37.65
Q 56.45 35.45 54.15 34.95 51.45 34.3 48.9 35.6 46.1 37.05 45.2 40.1 44.25 43.15 45.75 45.95 46.65 47.75 48.8 48.85
L 61.8 57.8 67.05 48.35 Z"/>
</g>

<g id="Witch_55_Layer2_0_FILL">
<path fill="#3D3A66" stroke="none" d="
M 46.7 37.95
Q 46.45 38.05 46.15 38.15 41.95 44.5 36.35 49.95 31.65 54.6 24.95 59.4 30.75 62.6 37 64.35 42.35 65.85 47.7 66.2 48.1 66 48.5 65.75
L 57.6 46.15 57.45 45.5 46.7 37.95 Z"/>
</g>

<g id="Witch_55_Layer1_0_FILL">
<path fill="#8CFFB3" stroke="none" d="
M 46.9 21.3
Q 45.25 22.15 43.45 23 40.35 26.2 37.8 28 34.75 30.15 30.6 31.6 30.15 31.75 29.65 31.9 25.95 32.85 20.6 34.3 15.75 35 10.65 36.2 12.2 39.45 15 39.8 18.85 41.9 25.7 41.45
L 25.75 41.45
Q 35.55 40.8 42.7 38.15 47.1 36.5 50.3 34.15 51.7 33.1 53.1 32 59.1 27.15 67.4 22.9 69.1 22 70.75 21.25 73.7 19.85 76.2 18.9 76.2 18.6 76.05 18.4
L 46.9 21.3 Z"/>
</g>

<g id="Witch_55_Layer0_0_FILL">
<path fill="#2B2847" stroke="none" d="
M 85.15 19.75
Q 94.85 18.1 94.75 17.05 94.7 16 84.85 16.2 75 16.4 61.1 17.7 47.25 19.05 37.55 20.7 27.85 22.4 27.95 23.4 28.05 24.45 37.9 24.25 47.75 24.05 61.6 22.75 75.45 21.45 85.15 19.75 Z"/>
</g>

<g id="Witch_55_Layer0_1_FILL">
<path fill="#3D3A66" stroke="none" d="
M 73.15 19.55
Q 78 18.75 77.95 18.2 76.15 13.8 72.4 9.3 65 0.3 55.55 0 46.1 -0.3 33.75 5.1 27.6 7.85 23.3 10.6
L 30.6 10.55
Q 38.25 10.8 40.3 12.55 42.95 14.75 44 18.3 44.55 20.05 44.55 21.35 44.6 21.9 49.5 21.8 54.45 21.7 61.35 21 68.3 20.35 73.15 19.55 Z"/>
</g>
</defs>

<g transform="matrix( 1.3707122802734375, 0, 0, 1.370941162109375, -17.35,-0.2) ">
<g transform="matrix( 1, 0, 0, 1, 0,0) ">
<use xlink:href="#Witch_55_Layer9_0_FILL"/>
</g>

<g transform="matrix( 1, 0, 0, 1, 0,0) ">
<use xlink:href="#Witch_55_Layer9_1_FILL"/>
</g>

<g transform="matrix( 1, 0, 0, 1, 0,0) ">
<use xlink:href="#Witch_55_Layer8_0_FILL"/>
</g>

<g transform="matrix( 1, 0, 0, 1, 0,0) ">
<use xlink:href="#Witch_55_Layer8_1_FILL"/>
</g>

<g transform="matrix( 1, 0, 0, 1, 0,0) ">
<use xlink:href="#Witch_55_Layer7_0_FILL"/>
</g>

<g transform="matrix( 1, 0, 0, 1, 0,0) ">
<use xlink:href="#Witch_55_Layer6_0_FILL"/>
</g>

<g transform="matrix( 1, 0, 0, 1, 0,0) ">
<use xlink:href="#Witch_55_Layer5_0_FILL"/>
</g>

<g transform="matrix( 1, 0, 0, 1, 0,0) ">
<use xlink:href="#Witch_55_Layer5_1_FILL"/>
</g>

<g transform="matrix( 1, 0, 0, 1, 0,0) ">
<use xlink:href="#Witch_55_Layer4_0_FILL"/>
</g>

<g transform="matrix( 1, 0, 0, 1, 0,0) ">
<use xlink:href="#Witch_55_Layer3_0_FILL"/>
</g>

<g transform="matrix( 1, 0, 0, 1, 0,0) ">
<use xlink:href="#Witch_55_Layer3_1_FILL"/>
</g>

<g transform="matrix( 1, 0, 0, 1, 0,0) ">
<use xlink:href="#Witch_55_Layer2_0_FILL"/>
</g>

<g transform="matrix( 1, 0, 0, 1, 0,0) ">
<use xlink:href="#Witch_55_Layer1_0_FILL"/>
</g>

<g transform="matrix( 1, 0, 0, 1, 0,0) ">
<use xlink:href="#Witch_55_Layer0_0_FILL"/>
</g>

<g transform="matrix( 1, 0, 0, 1, 0,0) ">
<use xlink:href="#Witch_55_Layer0_1_FILL"/>
</g>
</g>
</svg>
