<?xml version="1.0" encoding="utf-8"?>
<!-- Generator: Adobe Illustrator 25.4.1, SVG Export Plug-In . SVG Version: 6.00 Build 0)  -->
<svg version="1.1" id="Icon" xmlns="http://www.w3.org/2000/svg" xmlns:xlink="http://www.w3.org/1999/xlink" x="0px" y="0px"
	 viewBox="0 0 100 100" style="enable-background:new 0 0 100 100;" xml:space="preserve">
<style type="text/css">
	.st0{fill:#ABB8DE;}
	.st1{fill:#B6C5ED;}
	.st2{fill:#B5C9FF;}
	.st3{fill:#8FAFFF;}
	.st4{opacity:0.25;fill:#D2DFFF;}
	.st5{opacity:0.8;fill:#E9EFFF;}
	.st6{opacity:0.5;fill:#E9EFFF;}
	.st7{fill:#D3DFFF;}
	.st8{fill:#8A99C2;}
</style>
<g id="VerticalWings">
	<path id="Wings_00000053545354172961418830000011982566911518818436_" class="st0" d="M46.67,83.31H33.22
		c-1.15,0-2.04-0.73-1.89-1.56L36.97,50h22.49L54.8,78.07C54.3,81.06,50.81,83.31,46.67,83.31z"/>
	<path id="Wings_00000156548863232744000640000007015644598625344650_" class="st1" d="M46.67,16.69H33.22
		c-1.15,0-2.04,0.73-1.89,1.56L36.97,50h22.49L54.8,21.93C54.3,18.94,50.81,16.69,46.67,16.69z"/>
</g>
<path id="Tube" class="st2" d="M20.82,21.98v56.04c-3.98-0.16-7.69-0.5-11.05-1.21V23.19C13.13,22.48,16.84,22.15,20.82,21.98z"/>
<path id="Roket_00000080888185361235503110000007686179809154259357_" class="st3" d="M94.22,50c0,5.25-20.98,28.12-46.86,28.12
	c-6.02,0-21.25,0.11-26.54-0.1V21.98c5.29-0.21,20.52-0.1,26.54-0.1C73.24,21.88,94.22,44.75,94.22,50z"/>
<path class="st4" d="M76.53,37.22H64.15c-2.83-3.66-6.45-7.38-10.59-10.24h9.35C68.24,29.83,72.89,33.56,76.53,37.22z"/>
<path class="st5" d="M84.49,37.22h-1.6c-4.06-3.66-9.24-7.38-15.19-10.24h1.23C75.02,29.84,80.33,33.56,84.49,37.22z"/>
<path class="st6" d="M82.89,37.22h-6.36c-3.64-3.66-8.29-7.39-13.62-10.24h4.79C73.65,29.84,78.83,33.56,82.89,37.22z"/>
<g id="Wing">
	<polygon class="st3" points="54.17,51.95 31.33,50.89 31.33,49.11 54.17,48.05 	"/>
	<path class="st7" d="M43.78,49.17H32.86c-0.93,0-1.66-0.02-1.54-0.05l4.58-1.06h18.26l-3.79,0.94
		C49.98,49.09,47.15,49.17,43.78,49.17z"/>
	<path class="st8" d="M43.78,50.83H32.86c-0.93,0-1.66,0.02-1.54,0.05l4.58,1.06h18.26l-3.79-0.94
		C49.98,50.91,47.15,50.83,43.78,50.83z"/>
</g>
</svg>
