
<svg xmlns="http://www.w3.org/2000/svg" version="1.1" xmlns:xlink="http://www.w3.org/1999/xlink" preserveAspectRatio="none" x="0px" y="0px" width="100px" height="100px" viewBox="0 0 100 100">
<defs>
<g id="Plane_0_Layer0_0_MEMBER_5_FILL">
<path fill="#4D4D4D" stroke="none" d="
M 20.85 47.2
Q 19.95 48.05 19.95 49.3 19.95 50.55 20.85 51.4 21.7 52.25 22.95 52.25 24.2 52.25 25.05 51.4 25.95 50.55 25.95 49.3 25.95 48.05 25.05 47.2 24.2 46.3 22.95 46.3 21.7 46.3 20.85 47.2 Z"/>
</g>

<g id="Plane_0_Layer0_0_MEMBER_6_FILL">
<path fill="#4D4D4D" stroke="none" d="
M 64.85 56.95
Q 66.15 55.6 66.15 53.75 66.15 51.9 64.85 50.6 63.55 49.3 61.7 49.3 59.85 49.3 58.5 50.6 57.2 51.9 57.2 53.75 57.2 55.65 58.5 56.95 59.85 58.25 61.7 58.25 63.55 58.25 64.85 56.95 Z"/>
</g>

<g id="Plane_0_Layer0_1_MEMBER_0_FILL">
<path fill="#C2B6B1" stroke="none" d="
M 92.55 31.35
Q 92.55 30.1 91.65 29.25 90.8 28.4 89.55 28.4 88.3 28.4 87.45 29.25 86.6 30.1 86.6 31.35 86.6 32.6 87.45 33.45 88.3 34.35 89.55 34.35 90.8 34.35 91.65 33.45 92.55 32.6 92.55 31.35 Z"/>
</g>

<g id="Plane_0_Layer0_2_MEMBER_0_FILL">
<path fill="#94A38B" stroke="none" d="
M 63.2 16.45
Q 63.2 14 61.45 12.2 59.7 10.45 57.2 10.45 54.75 10.45 53 12.2 51.25 13.95 51.25 16.45 51.25 18.95 53 20.65 54.75 22.4 57.2 22.4 59.7 22.4 61.45 20.65 63.2 18.9 63.2 16.45 Z"/>
</g>

<g id="Plane_0_Layer0_2_MEMBER_1_FILL">
<path fill="#856D64" stroke="none" d="
M 89.55 19.4
Q 89.55 18.15 88.7 17.3 87.85 16.45 86.6 16.45
L 70.15 16.45
Q 70.15 17.7 67.1 18.55 64.05 19.4 59.7 19.4 55.35 19.4 52.3 18.55 49.25 17.7 49.25 16.45
L 29.85 16.45 26.1 8.05
Q 25.4 6.45 23.9 5.45 22.4 4.5 20.65 4.5
L 3.8 4.5
Q 2.35 4.5 1.45 5.65 0.55 6.75 0.9 8.2 1.85 11.9 8.25 35.9 9.1 38.9 12 39.95
L 28.9 45.95
Q 30.05 46.3 30.9 46.3
L 86.6 46.3
Q 87.85 46.3 88.7 45.4 89.55 44.55 89.55 43.3
L 89.55 19.4 Z"/>
</g>

<g id="Plane_0_Layer0_2_MEMBER_2_FILL">
<path fill="#C2B6B1" stroke="none" d="
M 28.65 17.65
Q 29.15 17.65 29.5 17.3 29.85 16.95 29.85 16.45 29.85 15.95 29.5 15.6 29.15 15.25 28.65 15.25
L 1.2 15.25
Q 0.7 15.25 0.35 15.6 0 15.95 0 16.45 0 16.95 0.35 17.3 0.7 17.65 1.2 17.65
L 28.65 17.65 Z"/>
</g>

<g id="Plane_0_Layer0_2_MEMBER_3_FILL">
<path fill="#A3928B" stroke="none" d="
M 21.8 17.6
Q 22.3 17.6 22.6 17.25 22.95 16.95 22.95 16.45 22.95 15.95 22.6 15.6 22.3 15.25 21.8 15.25
L 1.15 15.25
Q 0.65 15.25 0.35 15.6 0 15.95 0 16.45 0 16.95 0.35 17.25 0.65 17.6 1.15 17.6
L 21.8 17.6 Z"/>
</g>

<g id="Plane_0_Layer0_2_MEMBER_4_FILL">
<path fill="#73A8A5" stroke="none" d="
M 86.6 16.45
L 86.6 46.3
Q 87.85 46.3 88.7 45.4 89.55 44.55 89.55 43.3
L 89.55 19.4
Q 89.55 18.15 88.7 17.3 87.85 16.45 86.6 16.45 Z"/>
</g>

<g id="Plane_0_Layer0_2_MEMBER_5_FILL">
<path fill="#ECECEC" stroke="none" d="
M 70.15 16.45
Q 69.1 16.9 67.25 17.35 63.6 18.25 59.7 18.25 55.8 18.25 52.15 17.35
L 49.25 16.45
Q 49.25 17.7 52.3 18.55 55.35 19.4 59.7 19.4 64.05 19.4 67.1 18.55 70.15 17.7 70.15 16.45 Z"/>
</g>

<g id="Plane_0_Layer0_4_MEMBER_0_FILL">
<path fill="#A3928B" stroke="none" d="
M 70.65 3
Q 71.25 3 71.7 2.55 72.15 2.15 72.15 1.5 72.15 0.9 71.7 0.45 71.25 0 70.65 0
L 43.8 0
Q 43.15 0 42.75 0.45 42.3 0.9 42.3 1.5 42.3 2.15 42.75 2.55 43.15 3 43.8 3
L 70.65 3 Z"/>
</g>

<g id="Plane_0_Layer0_4_MEMBER_1_FILL">
<path fill="#A3928B" stroke="none" d="
M 42.75 45.85
Q 43.15 46.3 43.8 46.3
L 70.65 46.3
Q 71.25 46.3 71.7 45.85 72.15 45.4 72.15 44.8 72.15 44.15 71.7 43.75 71.25 43.3 70.65 43.3
L 43.8 43.3
Q 43.15 43.3 42.75 43.75 42.3 44.15 42.3 44.8 42.3 45.4 42.75 45.85 Z"/>
</g>

<path id="Plane_0_Layer0_0_MEMBER_0_1_STROKES" stroke="#1A1A1A" stroke-width="3" stroke-linejoin="miter" stroke-linecap="butt" stroke-miterlimit="10" fill="none" d="
M 11.5 36.45
L 22.95 49.3"/>

<path id="Plane_0_Layer0_0_MEMBER_1_1_STROKES" stroke="#1A1A1A" stroke-width="3" stroke-linejoin="miter" stroke-linecap="butt" stroke-miterlimit="10" fill="none" d="
M 25.95 43.3
L 22.95 49.3"/>

<path id="Plane_0_Layer0_0_MEMBER_2_1_STROKES" stroke="#1A1A1A" stroke-width="3" stroke-linejoin="miter" stroke-linecap="butt" stroke-miterlimit="10" fill="none" d="
M 61.7 53.75
L 86.6 43.3"/>

<path id="Plane_0_Layer0_0_MEMBER_3_1_STROKES" stroke="#1A1A1A" stroke-width="3" stroke-linejoin="miter" stroke-linecap="butt" stroke-miterlimit="10" fill="none" d="
M 42.3 44.8
L 61.7 53.75"/>

<path id="Plane_0_Layer0_0_MEMBER_4_1_STROKES" stroke="#1A1A1A" stroke-width="3" stroke-linejoin="miter" stroke-linecap="butt" stroke-miterlimit="10" fill="none" d="
M 61.7 44.8
L 61.7 53.75"/>

<path id="Plane_0_Layer0_3_MEMBER_0_1_STROKES" stroke="#4D4D4D" stroke-width="3" stroke-linejoin="miter" stroke-linecap="butt" stroke-miterlimit="10" fill="none" d="
M 57.2 1.5
L 57.2 44.8"/>
</defs>

<g transform="matrix( 1.6298828125, 0.0167999267578125, -0.0167999267578125, 1.6298828125, -2,48.1) ">
<g transform="matrix( 1, 0, 0, 1, -25.1,-26.85) ">
<use xlink:href="#Plane_0_Layer0_0_MEMBER_0_1_STROKES"/>
</g>

<g transform="matrix( 1, 0, 0, 1, -25.1,-26.85) ">
<use xlink:href="#Plane_0_Layer0_0_MEMBER_1_1_STROKES"/>
</g>

<g transform="matrix( 1, 0, 0, 1, -25.1,-26.85) ">
<use xlink:href="#Plane_0_Layer0_0_MEMBER_2_1_STROKES"/>
</g>

<g transform="matrix( 1, 0, 0, 1, -25.1,-26.85) ">
<use xlink:href="#Plane_0_Layer0_0_MEMBER_3_1_STROKES"/>
</g>

<g transform="matrix( 1, 0, 0, 1, -25.1,-26.85) ">
<use xlink:href="#Plane_0_Layer0_0_MEMBER_4_1_STROKES"/>
</g>

<g transform="matrix( 1, 0, 0, 1, -25.1,-26.85) ">
<use xlink:href="#Plane_0_Layer0_0_MEMBER_5_FILL"/>
</g>

<g transform="matrix( 1, 0, 0, 1, -25.1,-26.85) ">
<use xlink:href="#Plane_0_Layer0_0_MEMBER_6_FILL"/>
</g>

<g transform="matrix( 1, 0, 0, 1, -25.1,-26.85) ">
<use xlink:href="#Plane_0_Layer0_1_MEMBER_0_FILL"/>
</g>

<g transform="matrix( 1, 0, 0, 1, -25.1,-26.85) ">
<use xlink:href="#Plane_0_Layer0_2_MEMBER_0_FILL"/>
</g>

<g transform="matrix( 1, 0, 0, 1, -25.1,-26.85) ">
<use xlink:href="#Plane_0_Layer0_2_MEMBER_1_FILL"/>
</g>

<g transform="matrix( 1, 0, 0, 1, -25.1,-26.85) ">
<use xlink:href="#Plane_0_Layer0_2_MEMBER_2_FILL"/>
</g>

<g transform="matrix( 1, 0, 0, 1, -25.1,-26.85) ">
<use xlink:href="#Plane_0_Layer0_2_MEMBER_3_FILL"/>
</g>

<g transform="matrix( 1, 0, 0, 1, -25.1,-26.85) ">
<use xlink:href="#Plane_0_Layer0_2_MEMBER_4_FILL"/>
</g>

<g transform="matrix( 1, 0, 0, 1, -25.1,-26.85) ">
<use xlink:href="#Plane_0_Layer0_2_MEMBER_5_FILL"/>
</g>

<g transform="matrix( 1, 0, 0, 1, -25.1,-26.85) ">
<use xlink:href="#Plane_0_Layer0_3_MEMBER_0_1_STROKES"/>
</g>

<g transform="matrix( 1, 0, 0, 1, -25.1,-26.85) ">
<use xlink:href="#Plane_0_Layer0_4_MEMBER_0_FILL"/>
</g>

<g transform="matrix( 1, 0, 0, 1, -25.1,-26.85) ">
<use xlink:href="#Plane_0_Layer0_4_MEMBER_1_FILL"/>
</g>
</g>
</svg>
