<?xml version="1.0" encoding="utf-8"?>
<!-- Generator: Adobe Illustrator 25.4.1, SVG Export Plug-In . SVG Version: 6.00 Build 0)  -->
<svg version="1.1" id="Layer_9" xmlns="http://www.w3.org/2000/svg" xmlns:xlink="http://www.w3.org/1999/xlink" x="0px" y="0px"
	 viewBox="0 0 100 100" style="enable-background:new 0 0 100 100;" xml:space="preserve">
<style type="text/css">
	.st0{fill:#7A5557;}
	.st1{display:none;fill:none;stroke:#000000;stroke-miterlimit:10;}
	.st2{opacity:0.25;}
	.st3{fill:#484759;}
	.st4{fill:#363543;}
	.st5{fill:#24242D;}
	.st6{fill:#BFBFBF;}
</style>
<g id="Layer_10">
	
		<rect x="25.17" y="2.74" transform="matrix(0.9747 0.2235 -0.2235 0.9747 11.8437 -4.627)" class="st0" width="2.37" height="94.51"/>
</g>
<g id="Layer_1">
	<circle class="st1" cx="48.6" cy="56.39" r="6.63"/>
	<circle class="st1" cx="65.47" cy="48.21" r="6.63"/>
	<circle class="st1" cx="57.04" cy="52.3" r="13.26"/>
	<circle class="st1" cx="57.04" cy="52.3" r="13.26"/>
	<path class="st2" d="M59.49,44.94c-0.26,1.58-1.06,2.94-2.19,3.92L45.58,58.97c-1.23-2.12-1.88-4.58-1.8-7.09
		c0.04-1.31,3.86-9.42,6.45-10.96c2.17-1.29,4.69-1.96,7.26-1.86C59.04,40.51,59.85,42.69,59.49,44.94z"/>
	<path class="st3" d="M70.29,52.76c-0.05,1.29-6.33,11.19-9.03,12.1c-2.68,0.91-5.68,0.96-8.57-0.04c-5.62-1.95-9.09-7.3-8.91-12.94
		c0.04-1.31,3.86-9.42,6.45-10.96c1.27-0.76,2.65-1.29,4.1-1.6c0.06-2.71,2.39-4.88,5.24-4.88c2.9,0,5.25,2.23,5.25,4.99
		c0,0.66-0.14,1.3-0.38,1.88C68.23,43.86,70.45,48.22,70.29,52.76z"/>
</g>
<g id="LSholder">
	<path class="st3" d="M66.73,54.72c-1.11,0.22-2.29,0.15-3.43-0.25c-3.46-1.2-5.29-4.97-4.09-8.43c0.73-2.12,2.43-3.63,4.44-4.2
		l13.39-3.07c1.23-0.33,2.58-0.31,3.87,0.14c3.46,1.2,5.29,4.97,4.09,8.43c-0.65,1.88-2.07,3.29-3.79,3.98L66.73,54.72z"/>
</g>
<g id="L_Leg">
	<path class="st4" d="M75.55,58.6c-0.42,2.13-2.15,3.68-4.19,3.97l-12.9,3.48l0,0c-0.71,0.1-1.46,0.09-2.2-0.06
		c-3.59-0.7-5.93-4.19-5.22-7.78c0.56-2.85,2.87-4.91,5.58-5.29l13.28-0.19c0.56-0.08,1.14-0.08,1.73,0.04
		C74.32,53.29,76.08,55.91,75.55,58.6z"/>
	<path class="st4" d="M75.39,59.27c-0.38,1.11-1.13,2-2.05,2.58l-0.01,0.01l-7.17,7.36l-2.88-4.94l2.72-8.26
		c0.9-2.6,3.73-3.97,6.33-3.07C74.92,53.84,76.29,56.67,75.39,59.27z"/>
	<g>
		<path class="st5" d="M66.6,75.8c0,0-0.02,0.41-0.09,0.62c-0.3,0.86-1.25,1.32-2.11,1.02c-0.42-0.15-0.94-0.84-0.94-0.84l-3.1-7.47
			c-0.42-0.78-0.52-1.73-0.21-2.64c0.6-1.73,2.49-2.64,4.22-2.05c0.84,0.29,1.5,0.89,1.87,1.64c0.39,0.78,0.48,1.7,0.18,2.58
			c-0.02,0.07-0.05,0.13-0.07,0.19L66.6,75.8z"/>
	</g>
	<circle class="st1" cx="63.28" cy="67.58" r="3.32"/>
</g>
<g id="R_Leg_00000123401136104632055290000012917926964969484676_">
	<path class="st3" d="M44.3,75.72c-1.77-1.26-2.48-3.47-1.9-5.45l2.11-13.19l0,0c0.2-0.69,0.51-1.37,0.95-1.99
		c2.11-2.99,6.25-3.69,9.24-1.58c2.37,1.68,3.3,4.62,2.54,7.26l-5.27,12.19c-0.15,0.54-0.39,1.07-0.74,1.56
		C49.64,76.78,46.53,77.31,44.3,75.72z"/>
	<path class="st3" d="M51.95,72.04c-0.16,1.17-0.72,2.18-1.52,2.93l-0.01,0.02l-5.61,8.6l-3.78-4.29l1.07-8.63
		c0.38-2.72,2.89-4.62,5.62-4.23C50.43,66.81,52.33,69.32,51.95,72.04z"/>
	<path class="st4" d="M41.54,89.92c0,0-0.22,0.35-0.38,0.49c-0.68,0.6-1.73,0.54-2.34-0.15c-0.3-0.34-0.41-1.19-0.41-1.19l0.96-8.03
		c0.02-0.89,0.4-1.76,1.12-2.4c1.37-1.21,3.47-1.08,4.68,0.29c0.59,0.67,0.87,1.51,0.82,2.34c-0.04,0.87-0.41,1.72-1.11,2.34
		c-0.05,0.05-0.11,0.09-0.16,0.13L41.54,89.92z"/>
</g>
<g id="Head">
	<g>
		
			<ellipse transform="matrix(0.3613 -0.9324 0.9324 0.3613 17.1689 81.6572)" class="st5" cx="68.19" cy="28.3" rx="14.52" ry="7.33"/>
	</g>
	<circle class="st4" cx="61.86" cy="27.76" r="13.26"/>
	<path class="st6" d="M75.03,26.17c0.23,1.94,0.04,3.96-0.64,5.93c0,0-0.7,1.4-5.9,0.6c-1.04-0.16-2.34-0.58-3.02-0.85
		c-1.49-0.58-2.51-2.5-2.1-3.76l0.98-3.64c0,0,3.05,1.35,5.94,1.61C73.19,26.31,75.03,26.17,75.03,26.17z"/>
	<g>
		<path class="st3" d="M72.04,14.5V15c1.2,0,2.19,0.56,2.94,1.66c2.51,3.68,1.41,11.9-2.47,18.32c-2.46,4.08-5.59,6.62-8.16,6.62
			c-1.2,0-2.19-0.56-2.94-1.66c-2.51-3.68-1.41-11.9,2.47-18.32c2.46-4.08,5.59-6.62,8.16-6.62V14.5 M72.04,14.5
			c-2.66,0-5.93,2.46-8.59,6.86c-3.97,6.59-5.07,15.03-2.46,18.86c0.87,1.27,2.03,1.87,3.35,1.87c2.66,0,5.93-2.46,8.59-6.86
			c3.97-6.59,5.07-15.03,2.46-18.86C74.52,15.1,73.35,14.5,72.04,14.5L72.04,14.5z"/>
	</g>
	<path class="st3" d="M63.83,42.06c-1.41-0.23-4.94-1.3-6.31-1.78c-9.41-3.32-12.3-13.16-6.79-26.87
		c2.16-5.37,22.73,1.35,22.73,1.35l0.1,0.04c-2.84-1.21-6.91,1.27-10.1,6.56c-3.97,6.59-5.07,15.03-2.46,18.86
		c0.81,1.18,1.87,1.78,3.07,1.86L63.83,42.06z"/>
</g>
<g id="Layer_8">
	<g>
		<path class="st5" d="M70.29,52.76c0,0-8.26,2.16-13.25,2.08c-4.99-0.08-13.25-2.96-13.25-2.96l2.16-5.19c0,0,7.12,3.13,11.55,3.31
			s12.24-1.5,12.24-1.5L70.29,52.76z"/>
	</g>
</g>
<g id="RightHand">
	<path class="st3" d="M56.38,49.53c1.27-0.77,2.3-1.98,2.82-3.49c1.2-3.46-0.63-7.23-4.09-8.43c-1.45-0.5-2.96-0.47-4.31-0.01
		l-21.2,6.13l6.06,18.24L56.38,49.53z"/>
	<g>
		<path class="st5" d="M35.65,61.72c-0.09,0-0.25-0.04-0.51-0.25c-1.56-1.27-3.83-6.22-5.06-11.05c-0.93-3.63-0.92-5.81-0.49-6.36
			c0.08-0.1,0.15-0.12,0.21-0.12c0.09,0,0.25,0.04,0.51,0.25c1.56,1.27,3.83,6.23,5.06,11.05c0.93,3.63,0.92,5.81,0.49,6.36
			C35.78,61.7,35.71,61.72,35.65,61.72z"/>
		<path class="st3" d="M29.8,43.68l0,0.5L29.8,43.68v0.5c0,0,0.11,0,0.35,0.2c1.5,1.22,3.78,6.22,4.98,10.92
			c1.07,4.17,0.8,5.98,0.52,6.17c0,0-0.11,0-0.35-0.2c-1.5-1.22-3.78-6.22-4.98-10.92c-1.07-4.17-0.8-5.98-0.53-6.17L29.8,43.68
			 M29.8,43.68c-0.98,0-1.01,2.7,0.04,6.79c1.25,4.88,3.55,9.88,5.15,11.18c0.26,0.21,0.48,0.31,0.67,0.31
			c0.98,0,1.01-2.7-0.04-6.79c-1.25-4.88-3.55-9.88-5.15-11.18C30.21,43.78,29.98,43.68,29.8,43.68L29.8,43.68z"/>
	</g>
	<circle class="st6" cx="27.58" cy="52.3" r="6.63"/>
</g>
<g id="LeftHand">
	<path class="st3" d="M78.55,54.49l5.02-4.68c0.61-0.66,1.1-1.45,1.42-2.36c0.95-2.74,0-5.68-2.16-7.38l-4.29-3.12L78.55,54.49z"/>
	<g>
		<path class="st5" d="M75.12,55.72c-0.7,0-1.39-0.18-2.05-0.54c-3.36-1.81-5.14-7.56-3.97-12.82c0.9-4.02,3.32-6.73,6.02-6.73
			c0.7,0,1.39,0.18,2.05,0.54c3.36,1.81,5.14,7.56,3.97,12.82C80.24,53.01,77.82,55.72,75.12,55.72z"/>
		<path class="st3" d="M75.12,35.88L75.12,35.88c0.65,0,1.3,0.17,1.93,0.51c3.27,1.76,4.99,7.39,3.84,12.55
			c-0.87,3.91-3.19,6.53-5.77,6.53c-0.65,0-1.3-0.17-1.93-0.51c-3.27-1.76-4.99-7.39-3.84-12.55C70.22,38.5,72.54,35.88,75.12,35.88
			 M75.12,35.38c-2.75,0-5.31,2.67-6.26,6.92c-1.2,5.37,0.63,11.23,4.09,13.1c0.72,0.39,1.45,0.57,2.17,0.57
			c2.75,0,5.31-2.67,6.26-6.92c1.2-5.37-0.63-11.23-4.09-13.1C76.57,35.56,75.84,35.38,75.12,35.38L75.12,35.38z"/>
	</g>
	<circle class="st6" cx="73.79" cy="42.41" r="6.63"/>
</g>
</svg>
