
<svg xmlns="http://www.w3.org/2000/svg" version="1.1" xmlns:xlink="http://www.w3.org/1999/xlink" preserveAspectRatio="none" x="0px" y="0px" width="100px" height="100px" viewBox="0 0 100 100">
<defs>
<filter id="Filter_1" x="-20%" y="-20%" width="140%" height="140%" color-interpolation-filters="sRGB">
<feColorMatrix in="SourceGraphic" type="matrix" values="1 0 0 0 0 0 1 0 0 0 0 0 1 0 0 0 0 0 0.25 0" result="result1"/>
</filter>

<filter id="Filter_2" x="-20%" y="-20%" width="140%" height="140%" color-interpolation-filters="sRGB">
<feColorMatrix in="SourceGraphic" type="matrix" values="1 0 0 0 0 0 1 0 0 0 0 0 1 0 0 0 0 0 0.8 0" result="result1"/>
</filter>

<filter id="Filter_3" x="-20%" y="-20%" width="140%" height="140%" color-interpolation-filters="sRGB">
<feColorMatrix in="SourceGraphic" type="matrix" values="1 0 0 0 0 0 1 0 0 0 0 0 1 0 0 0 0 0 0.5 0" result="result1"/>
</filter>

<g id="Rocket_ai_0_Layer0_0_MEMBER_0_FILL">
<path fill="#ABB8DE" stroke="none" d="
M 21.55 65.05
Q 21.45 65.7 22 66.15 22.6 66.65 23.45 66.65
L 36.9 66.65
Q 40 66.65 42.35 65.15 44.65 63.65 45 61.4
L 49.7 33.35 27.2 33.35 21.55 65.05 Z"/>
</g>

<g id="Rocket_ai_0_Layer0_0_MEMBER_1_FILL">
<path fill="#B6C5ED" stroke="none" d="
M 45 5.25
Q 44.65 3 42.35 1.5 40 0 36.9 0
L 23.45 0
Q 22.6 0 22 0.5 21.45 0.95 21.55 1.6
L 27.2 33.35 49.7 33.35 45 5.25 Z"/>
</g>

<g id="Rocket_ai_0_Layer0_1_FILL">
<path fill="#B5C9FF" stroke="none" d="
M 11.05 5.3
Q 4.6 5.55 0 6.5
L 0 60.15
Q 4.6 61.1 11.05 61.35
L 11.05 5.3 Z"/>
</g>

<g id="Rocket_ai_0_Layer0_2_FILL">
<path fill="#8FAFFF" stroke="none" d="
M 80.75 26.75
Q 76.75 21.85 70.7 17.3 54.65 5.2 37.6 5.2 13.7 5.2 11.05 5.3
L 11.05 61.35
Q 13.7 61.45 37.6 61.45 54.6 61.45 70.7 49.35 76.7 44.85 80.75 39.95 84.45 35.45 84.45 33.35 84.45 31.2 80.75 26.75 Z"/>
</g>

<g id="Rocket_ai_Assets_Icon__Path__2_0_Layer0_0_FILL">
<path fill="#D2DFFF" stroke="none" d="
M 22.95 10.25
Q 16.6 3.9 9.35 0
L 0 0
Q 5.6 3.85 10.6 10.25
L 22.95 10.25 Z"/>
</g>

<g id="Rocket_ai_Assets_Icon__Path__1_0_Layer0_0_FILL">
<path fill="#E9EFFF" stroke="none" d="
M 16.75 10.25
Q 9.5 3.9 1.2 0
L 0 0
Q 8.05 3.85 15.15 10.25
L 16.75 10.25 Z"/>
</g>

<g id="Rocket_ai_Assets_Icon__Path__0_Layer0_0_FILL">
<path fill="#E9EFFF" stroke="none" d="
M 19.95 10.25
Q 12.85 3.85 4.8 0
L 0 0
Q 7.25 3.9 13.6 10.25
L 19.95 10.25 Z"/>
</g>

<g id="Rocket_ai_0_Layer0_6_MEMBER_0_FILL">
<path fill="#8FAFFF" stroke="none" d="
M 44.4 35.25
L 44.4 31.4 21.55 32.45 21.55 34.2 44.4 35.25 Z"/>
</g>

<g id="Rocket_ai_0_Layer0_6_MEMBER_1_FILL">
<path fill="#D3DFFF" stroke="none" d="
M 40.6 32.3
L 44.4 31.4 26.15 31.4 21.55 32.45 34 32.5
Q 39.8 32.5 40.6 32.3 Z"/>
</g>

<g id="Rocket_ai_0_Layer0_6_MEMBER_2_FILL">
<path fill="#8A99C2" stroke="none" d="
M 44.4 35.25
L 40.6 34.35
Q 39.8 34.15 34 34.15
L 21.55 34.2 26.15 35.25 44.4 35.25 Z"/>
</g>
</defs>

<g transform="matrix( 1.499969482421875, -0.02667236328125, 0.02667236328125, 1.499969482421875, -12.05,1.1) ">
<g transform="matrix( 1, 0, 0, 1, 0,0) ">
<g transform="matrix( 1, 0, 0, 1, 0,0) ">
<use xlink:href="#Rocket_ai_0_Layer0_0_MEMBER_0_FILL"/>
</g>

<g transform="matrix( 1, 0, 0, 1, 0,0) ">
<use xlink:href="#Rocket_ai_0_Layer0_0_MEMBER_1_FILL"/>
</g>

<g transform="matrix( 1, 0, 0, 1, 0,0) ">
<use xlink:href="#Rocket_ai_0_Layer0_1_FILL"/>
</g>

<g transform="matrix( 1, 0, 0, 1, 0,0) ">
<use xlink:href="#Rocket_ai_0_Layer0_2_FILL"/>
</g>

<g transform="matrix( 1, 0, 0, 1, 43.8,10.3) ">
<g transform="matrix( 1, 0, 0, 1, 0,0) ">
<use filter="url(#Filter_1)" xlink:href="#Rocket_ai_Assets_Icon__Path__2_0_Layer0_0_FILL"/>
</g>
</g>

<g transform="matrix( 1, 0, 0, 1, 57.95,10.3) ">
<g transform="matrix( 1, 0, 0, 1, 0,0) ">
<use filter="url(#Filter_2)" xlink:href="#Rocket_ai_Assets_Icon__Path__1_0_Layer0_0_FILL"/>
</g>
</g>

<g transform="matrix( 1, 0, 0, 1, 53.15,10.3) ">
<g transform="matrix( 1, 0, 0, 1, 0,0) ">
<use filter="url(#Filter_3)" xlink:href="#Rocket_ai_Assets_Icon__Path__0_Layer0_0_FILL"/>
</g>
</g>

<g transform="matrix( 1, 0, 0, 1, 0,0) ">
<use xlink:href="#Rocket_ai_0_Layer0_6_MEMBER_0_FILL"/>
</g>

<g transform="matrix( 1, 0, 0, 1, 0,0) ">
<use xlink:href="#Rocket_ai_0_Layer0_6_MEMBER_1_FILL"/>
</g>

<g transform="matrix( 1, 0, 0, 1, 0,0) ">
<use xlink:href="#Rocket_ai_0_Layer0_6_MEMBER_2_FILL"/>
</g>
</g>
</g>
</svg>
