<?xml version="1.0" encoding="utf-8"?>
<!-- Generator: Adobe Illustrator 25.4.1, SVG Export Plug-In . SVG Version: 6.00 Build 0)  -->
<svg version="1.1" xmlns="http://www.w3.org/2000/svg" xmlns:xlink="http://www.w3.org/1999/xlink" x="0px" y="0px"
	 viewBox="0 0 100 100" style="enable-background:new 0 0 100 100;" xml:space="preserve">
<style type="text/css">
	.st0{display:none;fill:#A9B5A8;}
	.st1{fill:#2B2847;}
	.st2{fill:#A9B5A8;}
	.st3{fill:#84B589;}
	.st4{fill:#5B5E3E;}
	.st5{fill:#3D3A66;}
	.st6{fill:#C7D4C6;}
	.st7{fill:#8CFFB3;}
</style>
<g id="LLeg_copy">
	<path id="RLeg_00000139263932344808426980000008144698589258021808_" class="st0" d="M55.22,63.94c-1.06,0.73-2.16,0.43-3.2-0.28
		l-9.74-6.45c-0.79-0.52-1.46-1.23-1.81-2.1c0-0.01-0.01-0.01-0.01-0.02c-1.05-2.56,0.18-5.48,2.74-6.53
		c1.15-0.47,2.38-0.48,3.47-0.11c1.04,0.35,1.89,1.12,2.5,2.04c0,0,6.59,9.86,6.67,9.99C56.56,61.62,56.33,63.19,55.22,63.94z"/>
	<path class="st1" d="M60.6,67.98l-8.27,8.27l-6.37-4.22c-1.2-0.79-2.23-1.88-2.76-3.2c-0.02-0.02-0.02-0.02-0.02-0.03
		c-1.6-3.9,0.27-8.36,4.18-9.96c1.75-0.72,3.61-0.73,5.29-0.17c1.59,0.53,2.88,1.71,3.81,3.11C56.47,61.77,58.42,64.69,60.6,67.98z"
		/>
	<path class="st2" d="M65.7,82.3c-1.62,1.1-3.29,0.64-4.88-0.43l-8.48-5.63l8.27-8.27c2.81,4.16,5.98,8.92,6.04,9.03
		C67.74,78.75,67.39,81.14,65.7,82.3z"/>
</g>
<g id="LHand">
	<path id="Close" class="st2" d="M73.75,68.4c-1.5,1.26-3.22,0.96-4.9,0.05l-15.74-8.36c-1.27-0.67-2.39-1.65-3.06-2.93
		c0-0.01-0.01-0.02-0.01-0.03c-1.97-3.73-0.54-8.34,3.19-10.31c1.68-0.88,3.54-1.08,5.25-0.68c1.64,0.38,3.04,1.42,4.1,2.72
		c0,0,11.46,14,11.6,14.18C75.44,64.67,75.33,67.08,73.75,68.4z"/>
	<path class="st1" d="M71.34,59.55l-5.23,9.44l-12.99-8.91c-1.27-0.67-2.39-1.65-3.05-2.93c-0.02,0-0.02-0.02-0.02-0.02
		c-1.97-3.74-0.55-8.36,3.19-10.31c1.68-0.88,3.54-1.08,5.25-0.69c1.63,0.38,3.05,1.42,4.1,2.73
		C62.58,48.87,67.89,55.35,71.34,59.55z"/>
</g>
<g id="Broom">
	<path class="st3" d="M22.4,55.71c9.29,0,12.46,3.83,12.46,8.21v3.81c0,4.38-6.66,7.92-15.67,5.79
		C10.17,71.39,1.27,62.08,1.27,62.08S13.11,55.71,22.4,55.71z"/>
	<rect x="34.86" y="63.92" class="st4" width="45.75" height="3.81"/>
</g>
<g id="Body">
	
		<ellipse transform="matrix(0.3876 -0.9218 0.9218 0.3876 -23.5252 83.8101)" class="st5" cx="51.32" cy="59.61" rx="15.25" ry="8.78"/>
</g>
<g id="LLeg_00000012462320500029153680000015058975868351027126_">
	<path id="RLeg_00000042705050679053999070000013428514722743475332_" class="st0" d="M53.37,64.23c-1.06,0.73-2.16,0.43-3.2-0.28
		l-9.74-6.45c-0.79-0.52-1.46-1.23-1.81-2.1c0-0.01-0.01-0.01-0.01-0.02c-1.05-2.56,0.18-5.48,2.74-6.53
		c1.15-0.47,2.38-0.48,3.47-0.11c1.04,0.35,1.89,1.12,2.5,2.04c0,0,6.59,9.86,6.67,9.99C54.71,61.9,54.48,63.47,53.37,64.23z"/>
	<path class="st5" d="M57.78,68.42l-8.27,8.27l-6.37-4.22c-1.2-0.79-2.23-1.88-2.76-3.2c-0.02-0.02-0.02-0.02-0.02-0.03
		c-1.6-3.9,0.27-8.36,4.18-9.96c1.75-0.72,3.61-0.73,5.29-0.17c1.59,0.53,2.88,1.71,3.81,3.11C53.65,62.21,55.6,65.12,57.78,68.42z"
		/>
	<path class="st6" d="M62.87,82.74c-1.62,1.1-3.29,0.64-4.88-0.43l-8.48-5.63l8.27-8.27c2.81,4.16,5.98,8.92,6.04,9.03
		C64.92,79.19,64.57,81.58,62.87,82.74z"/>
</g>
<g id="Head">
	<circle class="st6" cx="62.72" cy="32.3" r="15.25"/>
</g>
<g id="RHand">
	<path id="Close_00000162329298639352532300000000659173253388666293_" class="st6" d="M70.72,67.62c-1.5,1.26-3.22,0.96-4.9,0.05
		l-15.74-8.36c-1.27-0.67-2.39-1.65-3.06-2.93c0-0.01-0.01-0.02-0.01-0.03c-1.97-3.73-0.54-8.34,3.19-10.31
		c1.68-0.88,3.54-1.08,5.25-0.68c1.64,0.38,3.04,1.42,4.1,2.72c0,0,11.46,14,11.6,14.18C72.4,63.89,72.29,66.3,70.72,67.62z"/>
	<path class="st5" d="M68.3,58.77l-5.23,9.44L50.08,59.3c-1.27-0.67-2.39-1.65-3.05-2.93c-0.02,0-0.02-0.02-0.02-0.02
		c-1.97-3.74-0.55-8.36,3.19-10.31c1.68-0.88,3.54-1.08,5.25-0.69c1.63,0.38,3.05,1.42,4.1,2.73C59.55,48.09,64.85,54.57,68.3,58.77
		z"/>
</g>
<g id="Hairs">
	<path class="st7" d="M12.24,53.87C13.81,57.15,41.88,53.1,53,43.51C64.05,33.98,79.22,28.6,79.22,28.6l-33.09,3.33
		C37.54,41.66,24.57,47.48,12.24,53.87z"/>
	<path class="st5" d="M49.51,76.68c-8.23-0.46-15.82-2.72-23.02-6.09c8.33-6.02,15.33-13.57,21.19-22.42l11.37,8.02L49.51,76.68z"/>
</g>
<g id="Hat">
	
		<ellipse transform="matrix(0.9955 -0.0949 0.0949 0.9955 -2.6255 6.0797)" class="st1" cx="62.64" cy="30.66" rx="33.56" ry="2.52"/>
	<path class="st5" d="M79.22,28.6c0.07,0.7-7.37,1.97-16.59,2.84c-9.24,0.88-16.76,1.04-16.83,0.34c0,0-0.05-5.26-4.23-8.84
		c-3.23-2.78-17.13-2.13-17.13-2.13s17.25-10.9,32.37-10.4C71.91,10.9,79.22,28.6,79.22,28.6z"/>
</g>
</svg>
