<?xml version="1.0" encoding="utf-8"?>
<!-- Generator: Adobe Illustrator 25.4.1, SVG Export Plug-In . SVG Version: 6.00 Build 0)  -->
<svg version="1.1" xmlns="http://www.w3.org/2000/svg" xmlns:xlink="http://www.w3.org/1999/xlink" x="0px" y="0px"
	 viewBox="0 0 150 150" style="enable-background:new 0 0 150 150;" xml:space="preserve">
<style type="text/css">
	.st0{fill:#664391;}
	.st1{display:none;fill:#A9B5A8;}
	.st2{fill:#2B2847;}
	.st3{fill:#A9B5A8;}
	.st4{fill:#84B589;}
	.st5{fill:#5B5E3E;}
	.st6{fill:#3D3A66;}
	.st7{fill:#C7D4C6;}
	.st8{fill:#8CFFB3;}
</style>
<g id="Circle">
	<rect class="st0" width="150" height="150"/>
</g>
<g id="LLeg_copy">
	<path id="RLeg_00000139263932344808426980000008144698589258021808_" class="st1" d="M80.22,88.94c-1.06,0.73-2.16,0.43-3.2-0.28
		l-9.74-6.45c-0.79-0.52-1.46-1.23-1.81-2.1c0-0.01-0.01-0.01-0.01-0.02c-1.05-2.56,0.18-5.48,2.74-6.53
		c1.15-0.47,2.38-0.48,3.47-0.11c1.04,0.35,1.89,1.12,2.5,2.04c0,0,6.59,9.86,6.67,9.99C81.56,86.62,81.33,88.19,80.22,88.94z"/>
	<path class="st2" d="M85.6,92.98l-8.27,8.27l-6.37-4.22c-1.2-0.79-2.23-1.88-2.76-3.2c-0.02-0.02-0.02-0.02-0.02-0.03
		c-1.6-3.9,0.27-8.36,4.18-9.96c1.75-0.72,3.61-0.73,5.29-0.17c1.59,0.53,2.88,1.71,3.81,3.11C81.47,86.77,83.42,89.69,85.6,92.98z"
		/>
	<path class="st3" d="M90.7,107.3c-1.62,1.1-3.29,0.64-4.88-0.43l-8.48-5.63l8.27-8.27c2.81,4.16,5.98,8.92,6.04,9.03
		C92.74,103.75,92.39,106.14,90.7,107.3z"/>
</g>
<g id="LHand">
	<path id="Close" class="st3" d="M98.75,93.4c-1.5,1.26-3.22,0.96-4.9,0.05l-15.74-8.36c-1.27-0.67-2.39-1.65-3.06-2.93
		c0-0.01-0.01-0.02-0.01-0.03c-1.97-3.73-0.54-8.34,3.19-10.31c1.68-0.88,3.54-1.08,5.25-0.68c1.64,0.38,3.04,1.42,4.1,2.72
		c0,0,11.46,14,11.6,14.18C100.44,89.67,100.33,92.08,98.75,93.4z"/>
	<path class="st2" d="M96.34,84.55l-5.23,9.44l-12.99-8.91c-1.27-0.67-2.39-1.65-3.05-2.93c-0.02,0-0.02-0.02-0.02-0.02
		c-1.97-3.74-0.55-8.36,3.19-10.31c1.68-0.88,3.54-1.08,5.25-0.69c1.63,0.38,3.05,1.42,4.1,2.73
		C87.58,73.87,92.89,80.35,96.34,84.55z"/>
</g>
<g id="Broom">
	<path class="st4" d="M47.4,80.71c9.29,0,12.46,3.83,12.46,8.21v3.81c0,4.38-6.66,7.92-15.67,5.79
		c-9.01-2.13-17.92-11.44-17.92-11.44S38.11,80.71,47.4,80.71z"/>
	<rect x="59.86" y="88.92" class="st5" width="45.75" height="3.81"/>
</g>
<g id="Body">
	
		<ellipse transform="matrix(0.3876 -0.9218 0.9218 0.3876 -31.2615 122.1642)" class="st6" cx="76.32" cy="84.61" rx="15.25" ry="8.78"/>
</g>
<g id="LLeg_00000012462320500029153680000015058975868351027126_">
	<path id="RLeg_00000042705050679053999070000013428514722743475332_" class="st1" d="M78.37,89.23c-1.06,0.73-2.16,0.43-3.2-0.28
		l-9.74-6.45c-0.79-0.52-1.46-1.23-1.81-2.1c0-0.01-0.01-0.01-0.01-0.02c-1.05-2.56,0.18-5.48,2.74-6.53
		c1.15-0.47,2.38-0.48,3.47-0.11c1.04,0.35,1.89,1.12,2.5,2.04c0,0,6.59,9.86,6.67,9.99C79.71,86.9,79.48,88.47,78.37,89.23z"/>
	<path class="st6" d="M82.78,93.42l-8.27,8.27l-6.37-4.22c-1.2-0.79-2.23-1.88-2.76-3.2c-0.02-0.02-0.02-0.02-0.02-0.03
		c-1.6-3.9,0.27-8.36,4.18-9.96c1.75-0.72,3.61-0.73,5.29-0.17c1.59,0.53,2.88,1.71,3.81,3.11C78.65,87.21,80.6,90.12,82.78,93.42z"
		/>
	<path class="st7" d="M87.87,107.74c-1.62,1.1-3.29,0.64-4.88-0.43l-8.48-5.63l8.27-8.27c2.81,4.16,5.98,8.92,6.04,9.03
		C89.92,104.19,89.57,106.58,87.87,107.74z"/>
</g>
<g id="Head">
	<circle class="st7" cx="87.72" cy="57.3" r="15.25"/>
</g>
<g id="RHand">
	<path id="Close_00000162329298639352532300000000659173253388666293_" class="st7" d="M95.72,92.62c-1.5,1.26-3.22,0.96-4.9,0.05
		l-15.74-8.36c-1.27-0.67-2.39-1.65-3.06-2.93c0-0.01-0.01-0.02-0.01-0.03c-1.97-3.73-0.54-8.34,3.19-10.31
		c1.68-0.88,3.54-1.08,5.25-0.68c1.64,0.38,3.04,1.42,4.1,2.72c0,0,11.46,14,11.6,14.18C97.4,88.89,97.29,91.3,95.72,92.62z"/>
	<path class="st6" d="M93.3,83.77l-5.23,9.44L75.08,84.3c-1.27-0.67-2.39-1.65-3.05-2.93c-0.02,0-0.02-0.02-0.02-0.02
		c-1.97-3.74-0.55-8.36,3.19-10.31c1.68-0.88,3.54-1.08,5.25-0.69c1.63,0.38,3.05,1.42,4.1,2.73C84.55,73.09,89.85,79.57,93.3,83.77
		z"/>
</g>
<g id="Shroud">
	<path class="st6" d="M74.51,101.68c-8.23-0.46-15.82-2.72-23.02-6.09c8.33-6.02,15.33-13.57,21.19-22.42l11.37,8.02L74.51,101.68z"
		/>
</g>
<g id="Hairs">
	<path class="st8" d="M37.24,78.87C38.81,82.15,66.88,78.1,78,68.51c11.06-9.53,26.22-14.91,26.22-14.91l-33.09,3.33
		C62.54,66.66,49.57,72.48,37.24,78.87z"/>
</g>
<g id="Hat">
	
		<ellipse transform="matrix(0.9955 -0.0949 0.0949 0.9955 -4.8841 8.5638)" class="st2" cx="87.64" cy="55.66" rx="33.56" ry="2.52"/>
	<path class="st6" d="M104.22,53.6c0.07,0.7-7.37,1.97-16.59,2.84c-9.24,0.88-16.76,1.04-16.83,0.34c0,0-0.05-5.26-4.23-8.84
		c-3.23-2.78-17.13-2.13-17.13-2.13s17.25-10.9,32.37-10.4C96.91,35.9,104.22,53.6,104.22,53.6z"/>
</g>
</svg>
