<?xml version="1.0" encoding="utf-8"?>
<!-- Generator: Adobe Illustrator 25.4.1, SVG Export Plug-In . SVG Version: 6.00 Build 0)  -->
<svg version="1.1" xmlns="http://www.w3.org/2000/svg" xmlns:xlink="http://www.w3.org/1999/xlink" x="0px" y="0px"
	 viewBox="0 0 100 100" style="enable-background:new 0 0 100 100;" xml:space="preserve">
<style type="text/css">
	.st0{display:none;}
	.st1{display:inline;}
	.st2{display:inline;fill:none;stroke:#FFFFFF;stroke-width:32;stroke-linejoin:round;stroke-miterlimit:10;}
	.st3{display:inline;fill:none;stroke:#FFFFFF;stroke-width:32;stroke-linecap:round;stroke-linejoin:round;stroke-miterlimit:10;}
	.st4{fill:none;stroke:#FFFFFF;stroke-width:32;stroke-linecap:round;stroke-linejoin:round;stroke-miterlimit:10;}
	.st5{fill:none;stroke:#FFFFFF;stroke-width:6;stroke-linecap:round;stroke-linejoin:round;stroke-miterlimit:10;}
	.st6{fill:none;stroke:#FFFFFF;stroke-width:32;stroke-linejoin:round;stroke-miterlimit:10;}
	.st7{fill:#FDFFAA;}
	.st8{fill:#FFFFFF;}
	.st9{display:inline;fill:#FFFFFF;stroke:#000000;stroke-miterlimit:10;}
	.st10{fill:none;stroke:#FFFFFF;stroke-width:12;stroke-miterlimit:10;}
	.st11{display:inline;fill:#FFFFFF;}
	.st12{fill:#FFFFFF;stroke:#000000;stroke-miterlimit:10;}
</style>
<g id="Layer_5" class="st0">
	<rect class="st1" width="100" height="100"/>
</g>
<g id="Layer_2" class="st0">
	<path class="st2" d="M7.41-28.27c2.48,0.67,4.82,1.66,6.99,2.91c2.21,1.28,4.23,2.84,6.02,4.63"/>
	<ellipse class="st3" cx="-0.19" cy="0.02" rx="24.33" ry="24.41"/>
	<ellipse class="st4" cx="-0.19" cy="0.02" rx="29.2" ry="29.29"/>
	<ellipse class="st5" cx="20.49" cy="-20.71" rx="29.2" ry="29.29"/>
	<ellipse class="st5" cx="-20.8" cy="20.71" rx="29.2" ry="29.29"/>
	<line class="st5" x1="-27.68" y1="27.61" x2="27.37" y2="-27.61"/>
	<ellipse class="st5" cx="20.41" cy="20.63" rx="29.2" ry="29.29"/>
	<ellipse class="st5" cx="-20.8" cy="-20.71" rx="29.2" ry="29.29"/>
	<line class="st5" x1="-27.68" y1="-27.61" x2="27.37" y2="27.61"/>
	<path class="st6" d="M29,0.02c0,2.62-0.34,5.16-0.99,7.58c-0.66,2.48-1.64,4.84-2.89,7.01c-1.27,2.21-2.81,4.23-4.58,6.03
		c-1.82,1.84-3.89,3.45-6.14,4.75c-2.17,1.26-4.52,2.25-7,2.92c-2.42,0.65-4.97,1-7.6,1c-2.62,0-5.16-0.35-7.57-1
		c-2.49-0.67-4.85-1.66-7.02-2.92c-2.21-1.28-4.24-2.85-6.04-4.65c-1.82-1.82-3.4-3.88-4.69-6.13c-1.25-2.18-2.23-4.54-2.89-7.03
		c-0.64-2.41-0.98-4.94-0.98-7.56c0-2.62,0.34-5.17,0.99-7.59c0.67-2.5,1.65-4.87,2.92-7.06c1.29-2.24,2.87-4.29,4.68-6.1
		c1.79-1.79,3.81-3.34,6.01-4.62c2.19-1.27,4.57-2.27,7.08-2.94c2.4-0.64,4.92-0.98,7.52-0.98c2.63,0,5.18,0.35,7.61,1
		c2.48,0.67,4.82,1.66,6.99,2.91c2.21,1.28,4.23,2.84,6.02,4.63c1.81,1.81,3.38,3.86,4.67,6.09c1.24,2.15,2.22,4.48,2.88,6.94
		C28.65-5.24,29-2.65,29,0.02z"/>
	<path class="st2" d="M27.98-7.69C28.65-5.24,29-2.65,29,0.02c0,2.62-0.34,5.16-0.99,7.58"/>
	<path class="st2" d="M20.54,20.63c-1.82,1.84-3.89,3.45-6.14,4.75c-2.17,1.26-4.52,2.25-7,2.92"/>
	<path class="st2" d="M-7.77,28.31c-2.49-0.67-4.85-1.66-7.02-2.92c-2.21-1.28-4.24-2.85-6.04-4.65"/>
	<path class="st2" d="M-28.41,7.57c-0.64-2.41-0.98-4.94-0.98-7.56c0-2.62,0.34-5.17,0.99-7.59"/>
	<path class="st2" d="M-20.8-20.73c1.79-1.79,3.81-3.34,6.01-4.62c2.19-1.27,4.57-2.27,7.08-2.94"/>
</g>
<g id="Layer_3" class="st0">
	<path class="st7" d="M48.31-12.88c-1.11-4.23-2.78-8.24-4.91-11.95l-0.08-0.13c-2.2-3.83-4.91-7.34-8.02-10.44
		C29.21-41.48,21.56-45.99,13-48.28C8.86-49.41,4.5-50,0-50s-8.86,0.59-13,1.72c-8.56,2.29-16.21,6.8-22.3,12.88
		c-3.11,3.1-5.82,6.61-8.02,10.44l-0.08,0.13c-2.13,3.71-3.8,7.72-4.91,11.95C-49.42-8.77-50-4.45-50,0s0.58,8.77,1.69,12.88
		c1.11,4.23,2.78,8.24,4.91,11.95l0.08,0.13c2.2,3.83,4.91,7.34,8.02,10.44c6.09,6.08,13.74,10.59,22.3,12.88
		C-8.86,49.41-4.5,50,0,50s8.86-0.59,13-1.72c8.56-2.29,16.21-6.8,22.3-12.88c3.11-3.1,5.82-6.61,8.02-10.44l0.08-0.13
		c2.13-3.71,3.8-7.72,4.91-11.95C49.42,8.77,50,4.45,50,0S49.42-8.77,48.31-12.88z M23.96,28.85c-3.24,2.69-6.94,4.85-10.96,6.33
		c-4.62,1.72-9.68,2.54-14.95,2.27c-3.86-0.2-7.57-0.99-11.05-2.29c-4-1.49-7.69-3.65-10.92-6.34
		c-6.74-5.61-11.51-13.53-13.04-22.49c-0.25-1.44-0.41-2.9-0.49-4.38c-0.14-2.83,0.03-5.6,0.48-8.28c1.53-9,6.27-16.92,13.01-22.52
		c3.24-2.69,6.94-4.85,10.96-6.33c4.62-1.72,9.68-2.54,14.95-2.27c3.86,0.2,7.57,0.99,11.05,2.29c4,1.49,7.69,3.65,10.92,6.34
		c6.74,5.61,11.51,13.53,13.04,22.49c0.25,1.44,0.41,2.9,0.49,4.38c0.14,2.83-0.03,5.6-0.48,8.28
		C35.44,15.33,30.7,23.25,23.96,28.85z"/>
	<path class="st8" d="M0-50c-27.61,0-50,22.39-50,50s22.39,50,50,50S50,27.61,50,0S27.61-50,0-50z M0,25c-13.81,0-25-11.19-25-25
		s11.19-25,25-25S25-13.81,25,0S13.81,25,0,25z"/>
	<path class="st8" d="M30.61,21.67c-1.22,1.72-2.59,3.35-4.09,4.85l8.83,8.82c0.29-0.28,0.57-0.56,0.84-0.85
		c0.21-0.22,0.42-0.44,0.62-0.67c0.89-0.95,1.73-1.94,2.52-2.96c0.22-0.28,0.44-0.56,0.65-0.85c0.27-0.35,0.53-0.71,0.79-1.07
		c0.26-0.37,0.52-0.74,0.77-1.12c0.3-0.45,0.6-0.91,0.88-1.37c0.29-0.46,0.57-0.92,0.84-1.39c0.27-0.47,0.54-0.95,0.8-1.43
		c1.54-2.86,2.81-5.87,3.77-9.03c0.02-0.08,0.04-0.16,0.06-0.23c0.14-0.45,0.27-0.91,0.39-1.36c0.01-0.02,0.01-0.05,0.02-0.07
		L36.23,9.7C35.07,14.01,33.16,18.05,30.61,21.67z M35.67-11.58c0.2,0.62,0.38,1.25,0.55,1.87l12.08-3.23
		c0-0.02-0.01-0.03-0.02-0.05c-0.13-0.52-0.28-1.04-0.44-1.55c-0.15-0.5-0.31-1-0.47-1.49c-0.02-0.03-0.03-0.06-0.03-0.08
		c-0.18-0.52-0.37-1.04-0.56-1.55c-0.36-0.98-0.77-1.96-1.2-2.91c-0.26-0.56-0.52-1.11-0.79-1.66c-0.22-0.44-0.45-0.88-0.68-1.31
		c-0.24-0.45-0.49-0.9-0.74-1.34c-0.02-0.02-0.03-0.04-0.04-0.06c-0.27-0.48-0.55-0.94-0.84-1.41c-0.28-0.46-0.58-0.92-0.88-1.37
		c-0.49-0.75-1.01-1.48-1.55-2.19c-0.24-0.32-0.48-0.64-0.73-0.95c-0.25-0.32-0.5-0.63-0.75-0.94s-0.51-0.62-0.78-0.92l-0.72-0.81
		c-0.3-0.35-0.62-0.69-0.96-1.03c-0.24-0.26-0.49-0.51-0.74-0.76c-0.01-0.01-0.02-0.02-0.03-0.03h-0.01l-8.85,8.86
		c3.11,3.07,5.7,6.72,7.57,10.81C34.68-14.35,35.21-12.99,35.67-11.58z M7.81,36.68c-3.78,0.8-7.57,1-11.27,0.65
		c-2.11-0.2-4.2-0.59-6.23-1.14l-3.25,12.11c0.02,0,0.03,0.01,0.05,0.01c0.93,0.26,1.87,0.48,2.82,0.67
		c0.12,0.03,0.23,0.05,0.35,0.07c0.37,0.08,0.74,0.15,1.12,0.21c0.33,0.06,0.66,0.11,0.99,0.16c0.41,0.07,0.83,0.12,1.24,0.18
		c0.83,0.11,1.67,0.2,2.52,0.25c0.43,0.04,0.85,0.06,1.28,0.08c0.41,0.03,0.83,0.04,1.25,0.05C-0.9,50-0.48,50-0.06,50
		c0.47,0,0.94,0,1.42-0.02c0.37-0.01,0.74-0.02,1.1-0.05c0.07,0.01,0.14,0.01,0.21-0.01c0.36-0.01,0.73-0.03,1.09-0.06
		c1.51-0.11,3.04-0.29,4.56-0.56c0.4-0.06,0.81-0.14,1.21-0.21c0.18-0.04,0.36-0.07,0.54-0.11c0.95-0.19,1.89-0.41,2.82-0.67
		c0.02,0,0.03-0.01,0.05-0.01L9.71,36.22C9.09,36.39,8.44,36.54,7.81,36.68z M10.07-48.98c-0.12-0.03-0.23-0.05-0.35-0.07
		c-0.37-0.08-0.74-0.15-1.12-0.21c-0.33-0.06-0.66-0.11-0.99-0.16c-0.41-0.07-0.83-0.12-1.24-0.18c-0.83-0.11-1.67-0.2-2.52-0.25
		C3.42-49.89,3-49.91,2.57-49.93c-0.41-0.03-0.83-0.04-1.25-0.05C0.9-50,0.48-50,0.06-50c-0.47,0-0.94,0-1.42,0.02
		c-0.37,0.01-0.74,0.02-1.1,0.05c-0.07-0.01-0.14-0.01-0.21,0.01c-0.36,0.01-0.73,0.03-1.09,0.06c-1.51,0.11-3.04,0.29-4.56,0.56
		c-0.4,0.06-0.81,0.14-1.21,0.21c-0.18,0.04-0.36,0.07-0.54,0.11c-0.95,0.19-1.89,0.41-2.82,0.67c-0.02,0-0.03,0.01-0.05,0.01
		l3.23,12.08c0.62-0.17,1.27-0.32,1.9-0.46c3.78-0.8,7.57-1,11.27-0.65c2.11,0.2,4.2,0.59,6.23,1.14l3.25-12.11
		c-0.02,0-0.03-0.01-0.05-0.01C11.96-48.57,11.02-48.79,10.07-48.98z M-35.67,11.58c-0.2-0.62-0.38-1.25-0.55-1.87l-12.08,3.23
		c0,0.02,0.01,0.03,0.02,0.05c0.13,0.52,0.28,1.04,0.44,1.55c0.15,0.5,0.31,1,0.47,1.49c0.02,0.03,0.03,0.06,0.03,0.08
		c0.18,0.52,0.37,1.04,0.56,1.55c0.36,0.98,0.77,1.96,1.2,2.91c0.26,0.56,0.52,1.11,0.79,1.66c0.22,0.44,0.45,0.88,0.68,1.31
		c0.24,0.45,0.49,0.9,0.74,1.34c0.02,0.02,0.03,0.04,0.04,0.06c0.27,0.48,0.55,0.94,0.84,1.41c0.28,0.46,0.58,0.92,0.88,1.37
		c0.49,0.75,1.01,1.48,1.55,2.19c0.24,0.32,0.48,0.64,0.73,0.95c0.25,0.32,0.5,0.63,0.75,0.94s0.51,0.62,0.78,0.92
		c0.24,0.27,0.48,0.54,0.72,0.81c0.3,0.35,0.62,0.69,0.96,1.03c0.24,0.26,0.49,0.51,0.74,0.76c0.01,0.01,0.02,0.02,0.03,0.03h0.01
		l8.85-8.86c-3.11-3.07-5.7-6.72-7.57-10.81C-34.68,14.35-35.21,12.99-35.67,11.58z M-30.61-21.67c1.22-1.72,2.59-3.35,4.09-4.85
		l-8.83-8.82c-0.29,0.28-0.57,0.56-0.84,0.85c-0.21,0.22-0.42,0.44-0.62,0.67c-0.89,0.95-1.73,1.94-2.52,2.96
		c-0.22,0.28-0.44,0.56-0.65,0.85c-0.27,0.35-0.53,0.71-0.79,1.07c-0.26,0.37-0.52,0.74-0.77,1.12c-0.3,0.45-0.6,0.91-0.88,1.37
		c-0.29,0.46-0.57,0.92-0.84,1.39c-0.27,0.47-0.54,0.95-0.8,1.43c-1.54,2.86-2.81,5.87-3.77,9.03c-0.02,0.08-0.04,0.16-0.06,0.23
		c-0.14,0.45-0.27,0.91-0.39,1.36c-0.01,0.02-0.01,0.05-0.02,0.07l12.07,3.24C-35.07-14.01-33.16-18.05-30.61-21.67z"/>
	<path class="st9" d="M48.3-12.94L36.22-9.71c-0.17-0.62-0.35-1.25-0.55-1.87c-0.46-1.41-0.99-2.77-1.61-4.1
		c-1.87-4.09-4.46-7.74-7.57-10.81l8.85-8.86c-6.11-6.12-13.8-10.66-22.4-12.95L9.69-36.19c-2.03-0.55-4.12-0.94-6.23-1.14
		c-3.7-0.35-7.49-0.15-11.27,0.65c-0.63,0.14-1.28,0.29-1.9,0.46l-3.23-12.08c-8.61,2.3-16.3,6.84-22.41,12.95v0.01l8.83,8.82
		c-1.5,1.5-2.87,3.13-4.09,4.85c-2.55,3.62-4.46,7.66-5.62,11.97l-12.07-3.24C-49.41-8.81-50-4.48-50,0s0.59,8.81,1.7,12.94
		l12.08-3.23c0.17,0.62,0.35,1.25,0.55,1.87c0.46,1.41,0.99,2.77,1.61,4.1c1.87,4.09,4.46,7.74,7.57,10.81l-8.85,8.86
		c6.11,6.12,13.8,10.66,22.4,12.95l3.25-12.11c2.03,0.55,4.12,0.94,6.23,1.14c3.7,0.35,7.49,0.15,11.27-0.65
		c0.63-0.14,1.28-0.29,1.9-0.46l3.23,12.08c8.61-2.3,16.3-6.84,22.41-12.95v-0.01l-8.83-8.82c1.5-1.5,2.87-3.13,4.09-4.85
		c2.55-3.62,4.46-7.66,5.62-11.97l12.07,3.24C49.41,8.81,50,4.48,50,0S49.41-8.81,48.3-12.94z M2.03,24.92
		c-15.41,1.21-28.16-11.54-26.95-26.95c0.95-12.12,10.77-21.94,22.89-22.89c15.41-1.21,28.16,11.54,26.95,26.95
		C23.97,14.15,14.15,23.97,2.03,24.92z"/>
	<path class="st7" d="M-35.35-35.34L-35.35-35.34l-0.01-0.01c-0.28,0.28-0.56,0.57-0.83,0.86c-0.21,0.22-0.42,0.44-0.62,0.67
		c-0.89,0.95-1.73,1.94-2.52,2.96c-0.22,0.28-0.44,0.56-0.65,0.85c-0.27,0.35-0.53,0.71-0.79,1.07c-0.26,0.37-0.52,0.74-0.77,1.12
		c-0.3,0.45-0.6,0.91-0.88,1.37c-0.29,0.46-0.57,0.92-0.84,1.39c-0.27,0.47-0.54,0.95-0.8,1.43c-1.54,2.88-2.81,5.9-3.77,9.03
		c-0.02,0.08-0.04,0.16-0.06,0.23c-0.14,0.45-0.27,0.91-0.39,1.36c-0.01,0.02-0.01,0.05-0.02,0.07l12.07,3.24
		c1.16-4.31,3.07-8.35,5.62-11.97c1.22-1.72,2.59-3.35,4.09-4.85L-35.35-35.34z M9.71,36.22c-0.62,0.17-1.27,0.32-1.9,0.46
		c-3.78,0.8-7.57,1-11.27,0.65c-2.11-0.2-4.2-0.59-6.23-1.14l-3.25,12.11c0.02,0,0.03,0.01,0.05,0.01c0.93,0.25,1.87,0.48,2.82,0.67
		c0.12,0.03,0.23,0.05,0.35,0.07c0.37,0.08,0.74,0.15,1.12,0.21c0.33,0.06,0.66,0.11,0.99,0.16c0.41,0.07,0.83,0.12,1.24,0.18
		c0.83,0.11,1.67,0.2,2.52,0.25c0.43,0.04,0.85,0.06,1.28,0.08c0.41,0.03,0.83,0.04,1.25,0.05C-0.9,50-0.48,50-0.06,50
		c0.47,0,0.94,0,1.42-0.02c0.37-0.01,0.74-0.02,1.1-0.05c0.07,0.01,0.14,0.01,0.21-0.01c0.36-0.01,0.73-0.03,1.09-0.06
		c1.51-0.11,3.04-0.29,4.56-0.56c0.4-0.06,0.81-0.14,1.21-0.21c0.18-0.04,0.36-0.07,0.54-0.11c0.94-0.2,1.88-0.42,2.82-0.67
		c0.02,0,0.03-0.01,0.05-0.01L9.71,36.22z M12.89-48.31c-0.93-0.25-1.87-0.48-2.82-0.67c-0.12-0.03-0.23-0.05-0.35-0.07
		c-0.37-0.08-0.74-0.15-1.12-0.21c-0.33-0.06-0.66-0.11-0.99-0.16c-0.41-0.07-0.83-0.12-1.24-0.18c-0.83-0.11-1.67-0.2-2.52-0.25
		C3.42-49.89,3-49.91,2.57-49.93c-0.41-0.03-0.83-0.04-1.25-0.05C0.9-50,0.48-50,0.06-50c-0.47,0-0.94,0-1.42,0.02
		c-0.37,0.01-0.74,0.02-1.1,0.05c-0.07-0.01-0.14-0.01-0.21,0.01c-0.36,0.01-0.73,0.03-1.09,0.06c-1.51,0.11-3.04,0.29-4.56,0.56
		c-0.4,0.06-0.81,0.14-1.21,0.21c-0.18,0.04-0.36,0.07-0.54,0.11c-0.94,0.2-1.88,0.42-2.82,0.67c-0.02,0-0.03,0.01-0.05,0.01
		l3.23,12.08c0.62-0.17,1.27-0.32,1.9-0.46c3.78-0.8,7.57-1,11.27-0.65c2.11,0.2,4.2,0.59,6.23,1.14l3.25-12.11
		C12.92-48.3,12.91-48.31,12.89-48.31z M48.28-12.99c-0.13-0.52-0.28-1.04-0.44-1.55c-0.15-0.5-0.31-1-0.47-1.49
		c-0.02-0.03-0.03-0.06-0.03-0.08c-0.18-0.52-0.37-1.04-0.56-1.55c-0.37-0.99-0.77-1.96-1.2-2.91c-0.26-0.56-0.52-1.11-0.79-1.66
		c-0.22-0.44-0.45-0.88-0.68-1.31c-0.24-0.45-0.49-0.9-0.74-1.34c-0.02-0.02-0.03-0.04-0.04-0.06c-0.27-0.48-0.55-0.94-0.84-1.41
		c-0.28-0.46-0.58-0.92-0.88-1.37c-0.49-0.75-1.01-1.48-1.55-2.19c-0.24-0.32-0.48-0.64-0.73-0.95c-0.25-0.32-0.5-0.63-0.75-0.94
		s-0.51-0.62-0.78-0.92l-0.72-0.81c-0.3-0.35-0.62-0.69-0.96-1.03c-0.2-0.22-0.41-0.44-0.63-0.66l-0.11-0.1
		c-0.01-0.01-0.02-0.02-0.03-0.03h-0.01l-8.85,8.86c3.11,3.07,5.7,6.72,7.57,10.81c0.62,1.33,1.15,2.69,1.61,4.1
		c0.2,0.62,0.38,1.25,0.55,1.87l12.08-3.23C48.3-12.96,48.29-12.97,48.28-12.99z M36.23,9.7c-1.16,4.31-3.07,8.35-5.62,11.97
		c-1.22,1.72-2.59,3.35-4.09,4.85l8.83,8.82v0.01h0.01c0.28-0.28,0.56-0.57,0.83-0.86c0.21-0.22,0.42-0.44,0.62-0.67
		c0.89-0.95,1.73-1.94,2.52-2.96c0.22-0.28,0.44-0.56,0.65-0.85c0.27-0.35,0.53-0.71,0.79-1.07c0.26-0.37,0.52-0.74,0.77-1.12
		c0.3-0.45,0.6-0.91,0.88-1.37c0.29-0.46,0.57-0.92,0.84-1.39c0.27-0.47,0.54-0.95,0.8-1.43c1.54-2.88,2.81-5.9,3.77-9.03
		c0.02-0.08,0.04-0.16,0.06-0.23c0.14-0.45,0.27-0.91,0.39-1.36c0.01-0.02,0.01-0.05,0.02-0.07L36.23,9.7z M-34.06,15.68
		c-0.62-1.33-1.15-2.69-1.61-4.1c-0.2-0.62-0.38-1.25-0.55-1.87l-12.08,3.23c0,0.02,0.01,0.03,0.02,0.05
		c0.13,0.52,0.28,1.04,0.44,1.55c0.15,0.5,0.31,1,0.47,1.49c0.02,0.03,0.03,0.06,0.03,0.08c0.18,0.52,0.37,1.04,0.56,1.55
		c0.37,0.99,0.77,1.96,1.2,2.91c0.26,0.56,0.52,1.11,0.79,1.66c0.22,0.44,0.45,0.88,0.68,1.31c0.24,0.45,0.49,0.9,0.74,1.34
		c0.02,0.02,0.03,0.04,0.04,0.06c0.27,0.48,0.55,0.94,0.84,1.41c0.28,0.46,0.58,0.92,0.88,1.37c0.49,0.75,1.01,1.48,1.55,2.19
		c0.24,0.32,0.48,0.64,0.73,0.95c0.25,0.32,0.5,0.63,0.75,0.94s0.51,0.62,0.78,0.92c0.24,0.27,0.48,0.54,0.72,0.81
		c0.3,0.35,0.62,0.69,0.96,1.03c0.2,0.22,0.41,0.44,0.63,0.66l0.11,0.1c0.01,0.01,0.02,0.02,0.03,0.03h0.01l8.85-8.86
		C-29.6,23.42-32.19,19.77-34.06,15.68z"/>
</g>
<g id="Layer_4" class="st0">
	<ellipse class="st10" cx="50" cy="50.07" rx="25" ry="50"/>
	<g>
		<path class="st11" d="M50,37.08c11.36,0,22.29,2.21,29.99,6.06c5.99,3,8.01,6.02,8.01,6.94s-2.02,3.95-8.01,6.94
			c-7.7,3.85-18.63,6.06-29.99,6.06s-22.29-2.21-29.99-6.06C14.02,54.03,12,51,12,50.08s2.02-3.95,8.01-6.94
			C27.71,39.29,38.64,37.08,50,37.08 M50,25.08c-27.61,0-50,11.19-50,25s22.39,25,50,25s50-11.19,50-25S77.61,25.08,50,25.08
			L50,25.08z"/>
	</g>
	<path class="st8" d="M50-20c-16.35,0-30.87,7.85-39.99,20h13.55C30.61-6.22,39.87-10,50-10S69.39-6.22,76.44,0h13.55
		C80.87-12.15,66.35-20,50-20z M50,70c-1.38,0-2.74-0.07-4.08-0.21c-1.42,3.31-3.2,6.44-5.28,9.33C43.67,79.7,46.8,80,50,80
		c2.83,0,5.61-0.24,8.31-0.69c-2.12-2.92-3.93-6.07-5.38-9.42C51.96,69.96,50.98,70,50,70z"/>
	<path class="st8" d="M49.41,42.3c-2.04-13.18-9.23-24.67-19.45-32.32h-14.6c-0.48,0.84-0.93,1.69-1.35,2.55
		C29.19,18.2,40,32.84,40,50c0,6.26-1.44,12.19-4.01,17.47c3.14,1.18,6.47,1.97,9.93,2.32c1.65-3.81,2.84-7.86,3.49-12.09
		C49.8,55.19,50,52.62,50,50S49.8,44.81,49.41,42.3z M0,0c-27.61,0-50,22.39-50,50s22.39,50,50,50c1.29,0,2.58-0.05,3.85-0.15
		C1.64,99.33,0,97.35,0,94.99V90c-22.09,0-40-17.91-40-40c0-22.09,17.91-40,40-40c1.38,0,2.74,0.07,4.08,0.21
		c0.04-0.1,0.08-0.2,0.13-0.3c1.4-3.2,3.13-6.22,5.15-9.03C7.54,0.53,5.68,0.28,3.8,0.15C2.54,0.05,1.28,0,0,0z"/>
	<path class="st8" d="M100,0.02C99.61,0,99.21,0,98.81,0c-0.97,0-1.93,0.03-2.88,0.09c-1.84,0.1-3.65,0.3-5.43,0.6
		c2.08,2.86,3.86,5.95,5.29,9.22c0.03,0.07,0.06,0.13,0.09,0.2c0.97-0.07,1.94-0.11,2.93-0.11c0.4,0,0.8,0.01,1.19,0.02
		c21.54,0.63,38.81,18.29,38.81,39.98S121.54,89.35,100,89.98v5.01c0,1.38-0.56,2.63-1.46,3.53c-0.72,0.71-1.66,1.21-2.7,1.38
		c0.98,0.07,1.97,0.1,2.97,0.1c0.4,0,0.8,0,1.19-0.02c27.06-0.63,48.81-22.77,48.81-49.98C148.81,22.79,127.06,0.65,100,0.02z
		 M68.85,9.98C58.63,17.63,51.44,29.12,49.41,42.3c-0.4,2.51-0.6,5.08-0.6,7.7s0.2,5.19,0.6,7.7c0.65,4.27,1.85,8.35,3.52,12.19
		c3.5-0.25,6.88-0.95,10.07-2.06C60.32,62.46,58.81,56.4,58.81,50c0-17.54,11.29-32.44,26.99-37.84c-0.36-0.74-0.75-1.46-1.16-2.18
		H68.85z"/>
	<circle class="st8" cx="50" cy="50" r="40"/>
	<circle class="st8" cx="50" cy="50" r="40"/>
	<path class="st8" d="M68.74,76.36C87.07,68.95,100,50.98,100,30c0-7.07-1.47-13.79-4.12-19.89c-0.03-0.07-0.06-0.13-0.09-0.2
		c-1.43-3.27-3.21-6.36-5.29-9.22C90.34,0.46,90.17,0.23,89.99,0H10.01C9.79,0.29,9.57,0.58,9.36,0.88
		C7.34,3.69,5.61,6.71,4.21,9.91c-0.05,0.1-0.09,0.2-0.13,0.3C1.45,16.28,0,22.97,0,30c0,20.65,12.52,38.37,30.38,46
		C23.05,84.57,12.16,90,0,90v4.99c0,2.36,1.64,4.34,3.85,4.86c0,0,0,0,0.01,0c0.36,0.08,0.74,0.13,1.13,0.13h90.02
		c0.28,0,0.56-0.02,0.83-0.08c1.04-0.17,1.98-0.67,2.7-1.38c0.9-0.9,1.46-2.15,1.46-3.53v-5.01C99.61,89.99,99.21,90,98.81,90
		C86.82,90,76.06,84.72,68.74,76.36z M29.99,90c4.08-3.06,7.68-6.73,10.65-10.88c2.08-2.89,3.86-6.02,5.28-9.33
		c-3.46-0.35-6.79-1.14-9.93-2.32C20.81,61.8,10,47.16,10,30c0-6.26,1.44-12.19,4.01-17.47c0.42-0.86,0.87-1.71,1.35-2.55h69.28
		c0.41,0.72,0.8,1.44,1.16,2.18C88.49,17.53,90,23.59,90,30c0,17.54-11.29,32.44-27,37.83c-3.19,1.11-6.57,1.81-10.07,2.06
		c1.45,3.35,3.26,6.5,5.38,9.42c2.94,4.07,6.49,7.68,10.51,10.69H29.99z"/>
	<path class="st8" d="M4.99,0h5.02C9.79,0.29,9.57,0.58,9.36,0.88C7.34,3.69,5.61,6.71,4.21,9.91C1.83,9.54,0,7.48,0,4.99
		c0-1.37,0.56-2.62,1.46-3.53C2.1,0.83,2.9,0.37,3.8,0.15C4.18,0.05,4.58,0,4.99,0z"/>
	<path class="st8" d="M100,4.99c0,1.38-0.56,2.63-1.46,3.53c-0.73,0.73-1.69,1.23-2.75,1.39c-1.43-3.27-3.21-6.36-5.29-9.22
		C90.34,0.46,90.17,0.23,89.99,0h5.02c0.31,0,0.62,0.03,0.92,0.09C98.24,0.52,100,2.56,100,4.99z"/>
	<g class="st1">
		<path class="st8" d="M4.99,99.48c-0.32,0-0.67-0.04-1.02-0.12l-0.06-0.01c-2.01-0.5-3.41-2.28-3.41-4.36v-1.21
			c0-1.8,1.35-3.28,3.14-3.44c8.56-0.76,16.51-4.17,23-9.84c1.1-0.96,1.65-2.35,1.5-3.8c-0.15-1.46-1.01-2.76-2.31-3.49
			C10.2,64.44,0.5,47.89,0.5,30c0-6.81,1.36-13.41,4.04-19.59c0.04-0.1,0.07-0.19,0.12-0.27c1.38-3.15,3.1-6.16,5.11-8.96
			C9.9,0.98,10.24,0.5,12.33,0.5h75.95c1.48,0,1.73,0.36,1.81,0.48c2.08,2.86,3.84,5.93,5.24,9.13l0.05,0.11
			C98.13,16.54,99.5,23.16,99.5,30c0,18.21-9.96,34.9-25.99,43.56c-1.33,0.72-2.22,2.04-2.38,3.54c-0.15,1.47,0.41,2.86,1.54,3.82
			c7.29,6.18,16.57,9.58,26.14,9.58c0.23,0,0.46,0,0.69-0.01v4.5c0,1.2-0.47,2.33-1.31,3.18c-0.66,0.65-1.52,1.09-2.43,1.24
			c-0.23,0.05-0.47,0.07-0.75,0.07H4.99z M17.74,9.48c-1.68,0-3.24,0.96-3.98,2.44l-0.19,0.39C10.87,17.85,9.5,23.8,9.5,30
			c0,16.81,10.58,32.06,26.32,37.94c1.6,0.6,3.25,1.1,4.91,1.49c1.11,0.26,2,1,2.44,2.02c0.44,1.01,0.37,2.14-0.18,3.11
			c-0.84,1.46-1.76,2.9-2.75,4.27c-2.35,3.29-5.11,6.28-8.21,8.91c-0.51,0.43-0.69,1.12-0.46,1.74c0.23,0.62,0.8,1.02,1.46,1.02
			h32.83c0.65,0,1.22-0.39,1.44-1c0.23-0.62,0.05-1.29-0.46-1.72c-3.05-2.58-5.78-5.53-8.12-8.76c-0.98-1.35-1.9-2.76-2.73-4.2
			c-0.58-0.99-0.64-2.15-0.18-3.19c0.46-1.03,1.35-1.75,2.46-1.98c1.66-0.34,3.31-0.8,4.9-1.35C79.51,62.69,90.5,47.3,90.5,30
			c0-6.35-1.43-12.43-4.25-18.06c-0.73-1.5-2.26-2.46-3.91-2.46H17.74z"/>
		<path d="M88.28,1c0.74,0,1.29,0.1,1.41,0.28c2.05,2.82,3.79,5.86,5.18,9.03l0.06,0.12l0.04,0.08C97.64,16.67,99,23.23,99,30
			c0,18.02-9.86,34.55-25.73,43.12c-1.48,0.8-2.47,2.27-2.64,3.93c-0.17,1.64,0.45,3.19,1.71,4.25c7.38,6.25,16.78,9.7,26.47,9.7
			c0.06,0,0.13,0,0.19,0v3.99c0,1.07-0.41,2.07-1.16,2.82c-0.59,0.58-1.36,0.97-2.16,1.11l-0.03,0l-0.03,0.01
			c-0.17,0.04-0.37,0.06-0.61,0.06H4.99c-0.29,0-0.6-0.04-0.91-0.11l-0.06-0.01C2.24,98.42,1,96.83,1,94.99v-1.21
			c0-1.54,1.15-2.81,2.69-2.94c8.67-0.77,16.72-4.22,23.28-9.97c1.23-1.07,1.83-2.62,1.66-4.23c-0.17-1.62-1.13-3.07-2.56-3.87
			C10.61,64.09,1,47.71,1,30c0-6.75,1.34-13.27,4.01-19.42c0.03-0.07,0.06-0.15,0.1-0.22l0.01-0.02l0.01-0.02
			c1.36-3.1,3.05-6.08,5.05-8.86C10.46,1.06,11.65,1,12.33,1H88.28 M33.02,91h32.83c0.86,0,1.62-0.52,1.91-1.33
			c0.3-0.82,0.06-1.71-0.6-2.27c-3.02-2.56-5.72-5.47-8.04-8.68c-0.97-1.34-1.88-2.73-2.71-4.15c-0.49-0.85-0.55-1.85-0.15-2.74
			c0.39-0.88,1.16-1.49,2.11-1.69c1.68-0.35,3.35-0.81,4.96-1.37C79.88,63.1,91,47.51,91,30c0-6.43-1.45-12.58-4.31-18.3
			c-0.8-1.65-2.51-2.72-4.35-2.72h-64.6c-1.87,0-3.6,1.07-4.43,2.72l-0.2,0.4C10.38,17.7,9,23.72,9,30
			c0,17.02,10.71,32.46,26.64,38.41c1.61,0.61,3.29,1.11,4.97,1.51c0.95,0.22,1.72,0.85,2.1,1.73c0.38,0.86,0.32,1.83-0.16,2.66
			c-0.83,1.45-1.74,2.87-2.72,4.23c-2.33,3.25-5.06,6.22-8.13,8.82c-0.67,0.57-0.91,1.47-0.61,2.3C31.39,90.47,32.15,91,33.02,91
			 M88.28,0H12.33c-2.32,0-2.76,0.58-2.97,0.88C7.34,3.69,5.61,6.71,4.21,9.91c-0.05,0.1-0.09,0.2-0.13,0.3C1.45,16.28,0,22.97,0,30
			c0,18.75,10.32,35.08,25.58,43.64c2.41,1.35,2.81,4.66,0.73,6.48c-6.18,5.41-14.05,8.95-22.71,9.72C1.56,90.02,0,91.73,0,93.78
			v1.21c0,2.36,1.64,4.34,3.85,4.86c0,0,0,0,0.01,0c0.36,0.08,0.74,0.13,1.13,0.13h90.02c0.28,0,0.56-0.02,0.83-0.08
			c1.04-0.17,1.98-0.67,2.7-1.38c0.9-0.9,1.46-2.15,1.46-3.53v-5.01C99.61,89.99,99.21,90,98.81,90c-9.84,0-18.86-3.56-25.82-9.46
			c-2.15-1.82-1.72-5.2,0.76-6.54C89.38,65.55,100,49.01,100,30c0-7.07-1.47-13.79-4.12-19.89c-0.03-0.07-0.06-0.13-0.09-0.2
			c-1.43-3.27-3.21-6.36-5.29-9.22C90.34,0.46,89.99,0,88.28,0L88.28,0z M33.02,90c-1,0-1.44-1.24-0.68-1.88
			c3.12-2.65,5.91-5.67,8.29-9c1-1.38,1.92-2.82,2.78-4.31c1.34-2.34,0.04-5.25-2.58-5.87c-1.66-0.39-3.27-0.88-4.85-1.47
			C20.81,61.8,10,47.16,10,30c0-6.26,1.44-12.19,4.01-17.47c0.06-0.13,0.13-0.26,0.19-0.39c0.67-1.33,2.05-2.16,3.54-2.16h64.6
			c1.47,0,2.81,0.84,3.45,2.16l0.01,0.02C88.49,17.53,90,23.59,90,30c0,17.54-11.29,32.44-27,37.83c-1.57,0.55-3.18,0.99-4.84,1.34
			c-2.67,0.55-3.98,3.55-2.61,5.91c0.85,1.46,1.77,2.87,2.76,4.24c2.36,3.27,5.12,6.25,8.2,8.85c0.74,0.63,0.31,1.84-0.66,1.84
			H33.02L33.02,90z"/>
	</g>
</g>
<g id="Layer_6">
	<path class="st12" d="M95,17.6V6.31c0-0.73-0.61-1.32-1.34-1.29c-0.15,0.01-87.17,0.01-87.32,0C5.61,4.99,5,5.58,5,6.31V17.6
		c0,12.13,4.81,23.15,12.63,31.24c4.68,4.85,10.43,8.65,16.89,11.02c0.67,0.25,1.04,0.98,0.79,1.64c-1.71,4.5-4.4,8.53-7.8,11.81
		c-5.55,5.34-13,8.74-21.24,9.06C5.56,82.4,5,82.96,5,83.66c0,2.41,0,7.63,0,10.05C5,94.43,5.58,95,6.29,95h87.42
		c0.71,0,1.29-0.58,1.29-1.29V83.66c0-0.7-0.56-1.26-1.26-1.28c-8.24-0.32-15.69-3.71-21.24-9.06c-3.4-3.29-6.09-7.31-7.8-11.81
		c-0.25-0.67,0.12-1.4,0.79-1.64c6.45-2.37,12.21-6.17,16.89-11.02C90.19,40.75,95,29.73,95,17.6z M61.67,80.23l0.02,0.02
		c0.75,0.83,0.16,2.15-0.95,2.15H39.29c-1.13,0-1.72-1.33-0.96-2.17h0c4.32-4.76,7.64-10.45,9.61-16.73
		c0.17-0.54,0.67-0.92,1.24-0.91c0.28,0.01,0.55,0.01,0.83,0.01s0.55,0,0.83-0.01c0.57-0.01,1.07,0.37,1.24,0.91
		C54.04,69.79,57.35,75.47,61.67,80.23z M62.7,47.42C58.8,49.08,54.51,50,50,50s-8.8-0.92-12.7-2.58
		c-6.48-2.76-11.87-7.58-15.36-13.62c-2.36-4.07-3.84-8.69-4.24-13.62c-0.03-0.41-0.05-0.81-0.07-1.22
		c-0.03-0.74,0.55-1.36,1.29-1.36h62.17c0.74,0,1.32,0.62,1.29,1.36c-0.02,0.41-0.04,0.82-0.07,1.22c-0.4,4.93-1.88,9.55-4.24,13.62
		C74.57,39.84,69.18,44.65,62.7,47.42z"/>
</g>
</svg>
