<?xml version="1.0" encoding="utf-8"?>
<!-- Generator: Adobe Illustrator 25.4.1, SVG Export Plug-In . SVG Version: 6.00 Build 0)  -->
<svg version="1.1" xmlns="http://www.w3.org/2000/svg" xmlns:xlink="http://www.w3.org/1999/xlink" x="0px" y="0px"
	 viewBox="0 0 100 100" style="enable-background:new 0 0 100 100;" xml:space="preserve">
<style type="text/css">
	.st0{display:none;}
	.st1{display:inline;fill:none;stroke:#FFFFFF;stroke-width:32;stroke-linejoin:round;stroke-miterlimit:10;}
	.st2{display:inline;fill:none;stroke:#FFFFFF;stroke-width:32;stroke-linecap:round;stroke-linejoin:round;stroke-miterlimit:10;}
	.st3{fill:none;stroke:#FFFFFF;stroke-width:32;stroke-linecap:round;stroke-linejoin:round;stroke-miterlimit:10;}
	.st4{fill:none;stroke:#FFFFFF;stroke-width:6;stroke-linecap:round;stroke-linejoin:round;stroke-miterlimit:10;}
	.st5{fill:none;stroke:#FFFFFF;stroke-width:32;stroke-linejoin:round;stroke-miterlimit:10;}
	.st6{display:none;fill:#FDFFAA;}
	.st7{display:none;fill:#FFFFFF;}
	.st8{fill:#FFFFFF;stroke:#000000;stroke-miterlimit:10;}
</style>
<g id="Layer_1">
	<rect x="-50" y="-50" class="st0" width="100" height="100"/>
</g>
<g id="Layer_2" class="st0">
	<path class="st1" d="M7.41-28.27c2.48,0.67,4.82,1.66,6.99,2.91c2.21,1.28,4.23,2.84,6.02,4.63"/>
	<ellipse class="st2" cx="-0.19" cy="0.02" rx="24.33" ry="24.41"/>
	<ellipse class="st3" cx="-0.19" cy="0.02" rx="29.2" ry="29.29"/>
	<ellipse class="st4" cx="20.49" cy="-20.71" rx="29.2" ry="29.29"/>
	<ellipse class="st4" cx="-20.8" cy="20.71" rx="29.2" ry="29.29"/>
	<line class="st4" x1="-27.68" y1="27.61" x2="27.37" y2="-27.61"/>
	<ellipse class="st4" cx="20.41" cy="20.63" rx="29.2" ry="29.29"/>
	<ellipse class="st4" cx="-20.8" cy="-20.71" rx="29.2" ry="29.29"/>
	<line class="st4" x1="-27.68" y1="-27.61" x2="27.37" y2="27.61"/>
	<path class="st5" d="M29,0.02c0,2.62-0.34,5.16-0.99,7.58c-0.66,2.48-1.64,4.84-2.89,7.01c-1.27,2.21-2.81,4.23-4.58,6.03
		c-1.82,1.84-3.89,3.45-6.14,4.75c-2.17,1.26-4.52,2.25-7,2.92c-2.42,0.65-4.97,1-7.6,1c-2.62,0-5.16-0.35-7.57-1
		c-2.49-0.67-4.85-1.66-7.02-2.92c-2.21-1.28-4.24-2.85-6.04-4.65c-1.82-1.82-3.4-3.88-4.69-6.13c-1.25-2.18-2.23-4.54-2.89-7.03
		c-0.64-2.41-0.98-4.94-0.98-7.56c0-2.62,0.34-5.17,0.99-7.59c0.67-2.5,1.65-4.87,2.92-7.06c1.29-2.24,2.87-4.29,4.68-6.1
		c1.79-1.79,3.81-3.34,6.01-4.62c2.19-1.27,4.57-2.27,7.08-2.94c2.4-0.64,4.92-0.98,7.52-0.98c2.63,0,5.18,0.35,7.61,1
		c2.48,0.67,4.82,1.66,6.99,2.91c2.21,1.28,4.23,2.84,6.02,4.63c1.81,1.81,3.38,3.86,4.67,6.09c1.24,2.15,2.22,4.48,2.88,6.94
		C28.65-5.24,29-2.65,29,0.02z"/>
	<path class="st1" d="M27.98-7.69C28.65-5.24,29-2.65,29,0.02c0,2.62-0.34,5.16-0.99,7.58"/>
	<path class="st1" d="M20.54,20.63c-1.82,1.84-3.89,3.45-6.14,4.75c-2.17,1.26-4.52,2.25-7,2.92"/>
	<path class="st1" d="M-7.77,28.31c-2.49-0.67-4.85-1.66-7.02-2.92c-2.21-1.28-4.24-2.85-6.04-4.65"/>
	<path class="st1" d="M-28.41,7.57c-0.64-2.41-0.98-4.94-0.98-7.56c0-2.62,0.34-5.17,0.99-7.59"/>
	<path class="st1" d="M-20.8-20.73c1.79-1.79,3.81-3.34,6.01-4.62c2.19-1.27,4.57-2.27,7.08-2.94"/>
</g>
<g id="Layer_3">
	<path class="st6" d="M48.31-12.88c-1.11-4.23-2.78-8.24-4.91-11.95l-0.08-0.13c-2.2-3.83-4.91-7.34-8.02-10.44
		C29.21-41.48,21.56-45.99,13-48.28C8.86-49.41,4.5-50,0-50s-8.86,0.59-13,1.72c-8.56,2.29-16.21,6.8-22.3,12.88
		c-3.11,3.1-5.82,6.61-8.02,10.44l-0.08,0.13c-2.13,3.71-3.8,7.72-4.91,11.95C-49.42-8.77-50-4.45-50,0s0.58,8.77,1.69,12.88
		c1.11,4.23,2.78,8.24,4.91,11.95l0.08,0.13c2.2,3.83,4.91,7.34,8.02,10.44c6.09,6.08,13.74,10.59,22.3,12.88
		C-8.86,49.41-4.5,50,0,50s8.86-0.59,13-1.72c8.56-2.29,16.21-6.8,22.3-12.88c3.11-3.1,5.82-6.61,8.02-10.44l0.08-0.13
		c2.13-3.71,3.8-7.72,4.91-11.95C49.42,8.77,50,4.45,50,0S49.42-8.77,48.31-12.88z M23.96,28.85c-3.24,2.69-6.94,4.85-10.96,6.33
		c-4.62,1.72-9.68,2.54-14.95,2.27c-3.86-0.2-7.57-0.99-11.05-2.29c-4-1.49-7.69-3.65-10.92-6.34
		c-6.74-5.61-11.51-13.53-13.04-22.49c-0.25-1.44-0.41-2.9-0.49-4.38c-0.14-2.83,0.03-5.6,0.48-8.28c1.53-9,6.27-16.92,13.01-22.52
		c3.24-2.69,6.94-4.85,10.96-6.33c4.62-1.72,9.68-2.54,14.95-2.27c3.86,0.2,7.57,0.99,11.05,2.29c4,1.49,7.69,3.65,10.92,6.34
		c6.74,5.61,11.51,13.53,13.04,22.49c0.25,1.44,0.41,2.9,0.49,4.38c0.14,2.83-0.03,5.6-0.48,8.28
		C35.44,15.33,30.7,23.25,23.96,28.85z"/>
	<path class="st7" d="M0-50c-27.61,0-50,22.39-50,50s22.39,50,50,50S50,27.61,50,0S27.61-50,0-50z M0,25c-13.81,0-25-11.19-25-25
		s11.19-25,25-25S25-13.81,25,0S13.81,25,0,25z"/>
	<path class="st7" d="M30.61,21.67c-1.22,1.72-2.59,3.35-4.09,4.85l8.83,8.82c0.29-0.28,0.57-0.56,0.84-0.85
		c0.21-0.22,0.42-0.44,0.62-0.67c0.89-0.95,1.73-1.94,2.52-2.96c0.22-0.28,0.44-0.56,0.65-0.85c0.27-0.35,0.53-0.71,0.79-1.07
		c0.26-0.37,0.52-0.74,0.77-1.12c0.3-0.45,0.6-0.91,0.88-1.37c0.29-0.46,0.57-0.92,0.84-1.39c0.27-0.47,0.54-0.95,0.8-1.43
		c1.54-2.86,2.81-5.87,3.77-9.03c0.02-0.08,0.04-0.16,0.06-0.23c0.14-0.45,0.27-0.91,0.39-1.36c0.01-0.02,0.01-0.05,0.02-0.07
		L36.23,9.7C35.07,14.01,33.16,18.05,30.61,21.67z M35.67-11.58c0.2,0.62,0.38,1.25,0.55,1.87l12.08-3.23
		c0-0.02-0.01-0.03-0.02-0.05c-0.13-0.52-0.28-1.04-0.44-1.55c-0.15-0.5-0.31-1-0.47-1.49c-0.02-0.03-0.03-0.06-0.03-0.08
		c-0.18-0.52-0.37-1.04-0.56-1.55c-0.36-0.98-0.77-1.96-1.2-2.91c-0.26-0.56-0.52-1.11-0.79-1.66c-0.22-0.44-0.45-0.88-0.68-1.31
		c-0.24-0.45-0.49-0.9-0.74-1.34c-0.02-0.02-0.03-0.04-0.04-0.06c-0.27-0.48-0.55-0.94-0.84-1.41c-0.28-0.46-0.58-0.92-0.88-1.37
		c-0.49-0.75-1.01-1.48-1.55-2.19c-0.24-0.32-0.48-0.64-0.73-0.95c-0.25-0.32-0.5-0.63-0.75-0.94s-0.51-0.62-0.78-0.92l-0.72-0.81
		c-0.3-0.35-0.62-0.69-0.96-1.03c-0.24-0.26-0.49-0.51-0.74-0.76c-0.01-0.01-0.02-0.02-0.03-0.03h-0.01l-8.85,8.86
		c3.11,3.07,5.7,6.72,7.57,10.81C34.68-14.35,35.21-12.99,35.67-11.58z M7.81,36.68c-3.78,0.8-7.57,1-11.27,0.65
		c-2.11-0.2-4.2-0.59-6.23-1.14l-3.25,12.11c0.02,0,0.03,0.01,0.05,0.01c0.93,0.26,1.87,0.48,2.82,0.67
		c0.12,0.03,0.23,0.05,0.35,0.07c0.37,0.08,0.74,0.15,1.12,0.21c0.33,0.06,0.66,0.11,0.99,0.16c0.41,0.07,0.83,0.12,1.24,0.18
		c0.83,0.11,1.67,0.2,2.52,0.25c0.43,0.04,0.85,0.06,1.28,0.08c0.41,0.03,0.83,0.04,1.25,0.05C-0.9,50-0.48,50-0.06,50
		c0.47,0,0.94,0,1.42-0.02c0.37-0.01,0.74-0.02,1.1-0.05c0.07,0.01,0.14,0.01,0.21-0.01c0.36-0.01,0.73-0.03,1.09-0.06
		c1.51-0.11,3.04-0.29,4.56-0.56c0.4-0.06,0.81-0.14,1.21-0.21c0.18-0.04,0.36-0.07,0.54-0.11c0.95-0.19,1.89-0.41,2.82-0.67
		c0.02,0,0.03-0.01,0.05-0.01L9.71,36.22C9.09,36.39,8.44,36.54,7.81,36.68z M10.07-48.98c-0.12-0.03-0.23-0.05-0.35-0.07
		c-0.37-0.08-0.74-0.15-1.12-0.21c-0.33-0.06-0.66-0.11-0.99-0.16c-0.41-0.07-0.83-0.12-1.24-0.18c-0.83-0.11-1.67-0.2-2.52-0.25
		C3.42-49.89,3-49.91,2.57-49.93c-0.41-0.03-0.83-0.04-1.25-0.05C0.9-50,0.48-50,0.06-50c-0.47,0-0.94,0-1.42,0.02
		c-0.37,0.01-0.74,0.02-1.1,0.05c-0.07-0.01-0.14-0.01-0.21,0.01c-0.36,0.01-0.73,0.03-1.09,0.06c-1.51,0.11-3.04,0.29-4.56,0.56
		c-0.4,0.06-0.81,0.14-1.21,0.21c-0.18,0.04-0.36,0.07-0.54,0.11c-0.95,0.19-1.89,0.41-2.82,0.67c-0.02,0-0.03,0.01-0.05,0.01
		l3.23,12.08c0.62-0.17,1.27-0.32,1.9-0.46c3.78-0.8,7.57-1,11.27-0.65c2.11,0.2,4.2,0.59,6.23,1.14l3.25-12.11
		c-0.02,0-0.03-0.01-0.05-0.01C11.96-48.57,11.02-48.79,10.07-48.98z M-35.67,11.58c-0.2-0.62-0.38-1.25-0.55-1.87l-12.08,3.23
		c0,0.02,0.01,0.03,0.02,0.05c0.13,0.52,0.28,1.04,0.44,1.55c0.15,0.5,0.31,1,0.47,1.49c0.02,0.03,0.03,0.06,0.03,0.08
		c0.18,0.52,0.37,1.04,0.56,1.55c0.36,0.98,0.77,1.96,1.2,2.91c0.26,0.56,0.52,1.11,0.79,1.66c0.22,0.44,0.45,0.88,0.68,1.31
		c0.24,0.45,0.49,0.9,0.74,1.34c0.02,0.02,0.03,0.04,0.04,0.06c0.27,0.48,0.55,0.94,0.84,1.41c0.28,0.46,0.58,0.92,0.88,1.37
		c0.49,0.75,1.01,1.48,1.55,2.19c0.24,0.32,0.48,0.64,0.73,0.95c0.25,0.32,0.5,0.63,0.75,0.94s0.51,0.62,0.78,0.92
		c0.24,0.27,0.48,0.54,0.72,0.81c0.3,0.35,0.62,0.69,0.96,1.03c0.24,0.26,0.49,0.51,0.74,0.76c0.01,0.01,0.02,0.02,0.03,0.03h0.01
		l8.85-8.86c-3.11-3.07-5.7-6.72-7.57-10.81C-34.68,14.35-35.21,12.99-35.67,11.58z M-30.61-21.67c1.22-1.72,2.59-3.35,4.09-4.85
		l-8.83-8.82c-0.29,0.28-0.57,0.56-0.84,0.85c-0.21,0.22-0.42,0.44-0.62,0.67c-0.89,0.95-1.73,1.94-2.52,2.96
		c-0.22,0.28-0.44,0.56-0.65,0.85c-0.27,0.35-0.53,0.71-0.79,1.07c-0.26,0.37-0.52,0.74-0.77,1.12c-0.3,0.45-0.6,0.91-0.88,1.37
		c-0.29,0.46-0.57,0.92-0.84,1.39c-0.27,0.47-0.54,0.95-0.8,1.43c-1.54,2.86-2.81,5.87-3.77,9.03c-0.02,0.08-0.04,0.16-0.06,0.23
		c-0.14,0.45-0.27,0.91-0.39,1.36c-0.01,0.02-0.01,0.05-0.02,0.07l12.07,3.24C-35.07-14.01-33.16-18.05-30.61-21.67z"/>
	<path class="st8" d="M48.3-12.94L36.22-9.71c-0.17-0.62-0.35-1.25-0.55-1.87c-0.46-1.41-0.99-2.77-1.61-4.1
		c-1.87-4.09-4.46-7.74-7.57-10.81l8.85-8.86c-6.11-6.12-13.8-10.66-22.4-12.95L9.69-36.19c-2.03-0.55-4.12-0.94-6.23-1.14
		c-3.7-0.35-7.49-0.15-11.27,0.65c-0.63,0.14-1.28,0.29-1.9,0.46l-3.23-12.08c-8.61,2.3-16.3,6.84-22.41,12.95v0.01l8.83,8.82
		c-1.5,1.5-2.87,3.13-4.09,4.85c-2.55,3.62-4.46,7.66-5.62,11.97l-12.07-3.24C-49.41-8.81-50-4.48-50,0s0.59,8.81,1.7,12.94
		l12.08-3.23c0.17,0.62,0.35,1.25,0.55,1.87c0.46,1.41,0.99,2.77,1.61,4.1c1.87,4.09,4.46,7.74,7.57,10.81l-8.85,8.86
		c6.11,6.12,13.8,10.66,22.4,12.95l3.25-12.11c2.03,0.55,4.12,0.94,6.23,1.14c3.7,0.35,7.49,0.15,11.27-0.65
		c0.63-0.14,1.28-0.29,1.9-0.46l3.23,12.08c8.61-2.3,16.3-6.84,22.41-12.95v-0.01l-8.83-8.82c1.5-1.5,2.87-3.13,4.09-4.85
		c2.55-3.62,4.46-7.66,5.62-11.97l12.07,3.24C49.41,8.81,50,4.48,50,0S49.41-8.81,48.3-12.94z M2.03,24.92
		c-15.41,1.21-28.16-11.54-26.95-26.95c0.95-12.12,10.77-21.94,22.89-22.89c15.41-1.21,28.16,11.54,26.95,26.95
		C23.97,14.15,14.15,23.97,2.03,24.92z"/>
	<path class="st6" d="M-35.35-35.34L-35.35-35.34l-0.01-0.01c-0.28,0.28-0.56,0.57-0.83,0.86c-0.21,0.22-0.42,0.44-0.62,0.67
		c-0.89,0.95-1.73,1.94-2.52,2.96c-0.22,0.28-0.44,0.56-0.65,0.85c-0.27,0.35-0.53,0.71-0.79,1.07c-0.26,0.37-0.52,0.74-0.77,1.12
		c-0.3,0.45-0.6,0.91-0.88,1.37c-0.29,0.46-0.57,0.92-0.84,1.39c-0.27,0.47-0.54,0.95-0.8,1.43c-1.54,2.88-2.81,5.9-3.77,9.03
		c-0.02,0.08-0.04,0.16-0.06,0.23c-0.14,0.45-0.27,0.91-0.39,1.36c-0.01,0.02-0.01,0.05-0.02,0.07l12.07,3.24
		c1.16-4.31,3.07-8.35,5.62-11.97c1.22-1.72,2.59-3.35,4.09-4.85L-35.35-35.34z M9.71,36.22c-0.62,0.17-1.27,0.32-1.9,0.46
		c-3.78,0.8-7.57,1-11.27,0.65c-2.11-0.2-4.2-0.59-6.23-1.14l-3.25,12.11c0.02,0,0.03,0.01,0.05,0.01c0.93,0.25,1.87,0.48,2.82,0.67
		c0.12,0.03,0.23,0.05,0.35,0.07c0.37,0.08,0.74,0.15,1.12,0.21c0.33,0.06,0.66,0.11,0.99,0.16c0.41,0.07,0.83,0.12,1.24,0.18
		c0.83,0.11,1.67,0.2,2.52,0.25c0.43,0.04,0.85,0.06,1.28,0.08c0.41,0.03,0.83,0.04,1.25,0.05C-0.9,50-0.48,50-0.06,50
		c0.47,0,0.94,0,1.42-0.02c0.37-0.01,0.74-0.02,1.1-0.05c0.07,0.01,0.14,0.01,0.21-0.01c0.36-0.01,0.73-0.03,1.09-0.06
		c1.51-0.11,3.04-0.29,4.56-0.56c0.4-0.06,0.81-0.14,1.21-0.21c0.18-0.04,0.36-0.07,0.54-0.11c0.94-0.2,1.88-0.42,2.82-0.67
		c0.02,0,0.03-0.01,0.05-0.01L9.71,36.22z M12.89-48.31c-0.93-0.25-1.87-0.48-2.82-0.67c-0.12-0.03-0.23-0.05-0.35-0.07
		c-0.37-0.08-0.74-0.15-1.12-0.21c-0.33-0.06-0.66-0.11-0.99-0.16c-0.41-0.07-0.83-0.12-1.24-0.18c-0.83-0.11-1.67-0.2-2.52-0.25
		C3.42-49.89,3-49.91,2.57-49.93c-0.41-0.03-0.83-0.04-1.25-0.05C0.9-50,0.48-50,0.06-50c-0.47,0-0.94,0-1.42,0.02
		c-0.37,0.01-0.74,0.02-1.1,0.05c-0.07-0.01-0.14-0.01-0.21,0.01c-0.36,0.01-0.73,0.03-1.09,0.06c-1.51,0.11-3.04,0.29-4.56,0.56
		c-0.4,0.06-0.81,0.14-1.21,0.21c-0.18,0.04-0.36,0.07-0.54,0.11c-0.94,0.2-1.88,0.42-2.82,0.67c-0.02,0-0.03,0.01-0.05,0.01
		l3.23,12.08c0.62-0.17,1.27-0.32,1.9-0.46c3.78-0.8,7.57-1,11.27-0.65c2.11,0.2,4.2,0.59,6.23,1.14l3.25-12.11
		C12.92-48.3,12.91-48.31,12.89-48.31z M48.28-12.99c-0.13-0.52-0.28-1.04-0.44-1.55c-0.15-0.5-0.31-1-0.47-1.49
		c-0.02-0.03-0.03-0.06-0.03-0.08c-0.18-0.52-0.37-1.04-0.56-1.55c-0.37-0.99-0.77-1.96-1.2-2.91c-0.26-0.56-0.52-1.11-0.79-1.66
		c-0.22-0.44-0.45-0.88-0.68-1.31c-0.24-0.45-0.49-0.9-0.74-1.34c-0.02-0.02-0.03-0.04-0.04-0.06c-0.27-0.48-0.55-0.94-0.84-1.41
		c-0.28-0.46-0.58-0.92-0.88-1.37c-0.49-0.75-1.01-1.48-1.55-2.19c-0.24-0.32-0.48-0.64-0.73-0.95c-0.25-0.32-0.5-0.63-0.75-0.94
		s-0.51-0.62-0.78-0.92l-0.72-0.81c-0.3-0.35-0.62-0.69-0.96-1.03c-0.2-0.22-0.41-0.44-0.63-0.66l-0.11-0.1
		c-0.01-0.01-0.02-0.02-0.03-0.03h-0.01l-8.85,8.86c3.11,3.07,5.7,6.72,7.57,10.81c0.62,1.33,1.15,2.69,1.61,4.1
		c0.2,0.62,0.38,1.25,0.55,1.87l12.08-3.23C48.3-12.96,48.29-12.97,48.28-12.99z M36.23,9.7c-1.16,4.31-3.07,8.35-5.62,11.97
		c-1.22,1.72-2.59,3.35-4.09,4.85l8.83,8.82v0.01h0.01c0.28-0.28,0.56-0.57,0.83-0.86c0.21-0.22,0.42-0.44,0.62-0.67
		c0.89-0.95,1.73-1.94,2.52-2.96c0.22-0.28,0.44-0.56,0.65-0.85c0.27-0.35,0.53-0.71,0.79-1.07c0.26-0.37,0.52-0.74,0.77-1.12
		c0.3-0.45,0.6-0.91,0.88-1.37c0.29-0.46,0.57-0.92,0.84-1.39c0.27-0.47,0.54-0.95,0.8-1.43c1.54-2.88,2.81-5.9,3.77-9.03
		c0.02-0.08,0.04-0.16,0.06-0.23c0.14-0.45,0.27-0.91,0.39-1.36c0.01-0.02,0.01-0.05,0.02-0.07L36.23,9.7z M-34.06,15.68
		c-0.62-1.33-1.15-2.69-1.61-4.1c-0.2-0.62-0.38-1.25-0.55-1.87l-12.08,3.23c0,0.02,0.01,0.03,0.02,0.05
		c0.13,0.52,0.28,1.04,0.44,1.55c0.15,0.5,0.31,1,0.47,1.49c0.02,0.03,0.03,0.06,0.03,0.08c0.18,0.52,0.37,1.04,0.56,1.55
		c0.37,0.99,0.77,1.96,1.2,2.91c0.26,0.56,0.52,1.11,0.79,1.66c0.22,0.44,0.45,0.88,0.68,1.31c0.24,0.45,0.49,0.9,0.74,1.34
		c0.02,0.02,0.03,0.04,0.04,0.06c0.27,0.48,0.55,0.94,0.84,1.41c0.28,0.46,0.58,0.92,0.88,1.37c0.49,0.75,1.01,1.48,1.55,2.19
		c0.24,0.32,0.48,0.64,0.73,0.95c0.25,0.32,0.5,0.63,0.75,0.94s0.51,0.62,0.78,0.92c0.24,0.27,0.48,0.54,0.72,0.81
		c0.3,0.35,0.62,0.69,0.96,1.03c0.2,0.22,0.41,0.44,0.63,0.66l0.11,0.1c0.01,0.01,0.02,0.02,0.03,0.03h0.01l8.85-8.86
		C-29.6,23.42-32.19,19.77-34.06,15.68z"/>
</g>
</svg>
