
<svg xmlns="http://www.w3.org/2000/svg" version="1.1" xmlns:xlink="http://www.w3.org/1999/xlink" preserveAspectRatio="none" x="0px" y="0px" width="100px" height="100px" viewBox="0 0 100 100">
<defs>
<filter id="Filter_1" x="-20%" y="-20%" width="140%" height="140%" color-interpolation-filters="sRGB">
<feColorMatrix in="SourceGraphic" type="matrix" values="1 0 0 0 0 0 1 0 0 0 0 0 1 0 0 0 0 0 0.25 0" result="result1"/>
</filter>

<filter id="Filter_2" x="-20%" y="-20%" width="140%" height="140%" color-interpolation-filters="sRGB">
<feColorMatrix in="SourceGraphic" type="matrix" values="1 0 0 0 0 0 1 0 0 0 0 0 1 0 0 0 0 0 0.8 0" result="result1"/>
</filter>

<filter id="Filter_3" x="-20%" y="-20%" width="140%" height="140%" color-interpolation-filters="sRGB">
<feColorMatrix in="SourceGraphic" type="matrix" values="1 0 0 0 0 0 1 0 0 0 0 0 1 0 0 0 0 0 0.5 0" result="result1"/>
</filter>

<g id="Mask_FireEffectRed_10_1_MASK_0_FILL">
<path fill="#FFFFFF" stroke="none" d="
M 63.95 -54.15
Q 57 -78.7 46.65 -98.75 37.4 -116.65 15.5 -140.45 4.55 -152.35 -4.55 -160.7 -3.05 -146.1 -3.25 -127.7 -3.55 -90.85 -11.75 -71.65 -17.25 -58.8 -27.2 -49.4 -34 -43.05 -45.25 -36.5 -57.75 -29.25 -60.2 -27.25 -66.45 -22.25 -66.45 -16 -66.448046875 12.35546875 -46.4 32.4 -26.305078125 52.4984375 2.05 52.5 30.4052734375 52.4986328125 50.45 32.4 70.5486328125 12.3552734375 70.55 -16 70.55 -30.65 63.95 -54.15 Z"/>
</g>

<g id="FireEffectRed_10_Layer1_0_FILL">
<path fill="#FF0000" stroke="none" d="
M 195 -222.95
L -145.95 -222.95 -145.95 165 195 165 195 -222.95 Z"/>
</g>

<g id="Mask_FireEffectOrange_10_1_MASK_0_FILL">
<path fill="#FFFFFF" stroke="none" d="
M 63.95 -54.15
Q 57 -78.7 46.65 -98.75 37.4 -116.65 15.5 -140.45 4.55 -152.35 -4.55 -160.7 -3.05 -146.1 -3.25 -127.7 -3.55 -90.85 -11.75 -71.65 -17.25 -58.8 -27.2 -49.4 -34 -43.05 -45.25 -36.5 -57.75 -29.25 -60.2 -27.25 -66.45 -22.25 -66.45 -16 -66.448046875 12.35546875 -46.4 32.4 -26.305078125 52.4984375 2.05 52.5 30.4052734375 52.4986328125 50.45 32.4 70.5486328125 12.3552734375 70.55 -16 70.55 -30.65 63.95 -54.15 Z"/>
</g>

<g id="FireEffectOrange_10_Layer1_0_FILL">
<path fill="#FF9900" stroke="none" d="
M 204 -268.95
L -165.95 -268.95 -165.95 171 204 171 204 -268.95 Z"/>
</g>

<g id="FireEffectYellow_10_Layer0_0_FILL">
<path fill="#00FF00" stroke="none" d="
M 63.95 -54.15
Q 57 -78.7 46.65 -98.75 37.4 -116.65 15.5 -140.45 4.55 -152.35 -4.55 -160.7 -3.05 -146.1 -3.25 -127.7 -3.55 -90.85 -11.75 -71.65 -17.25 -58.8 -27.2 -49.4 -34 -43.05 -45.25 -36.5 -57.75 -29.25 -60.2 -27.25 -66.45 -22.25 -66.45 -16 -66.448046875 12.35546875 -46.4 32.4 -26.305078125 52.4984375 2.05 52.5 30.4052734375 52.4986328125 50.45 32.4 70.5486328125 12.3552734375 70.55 -16 70.55 -30.65 63.95 -54.15 Z"/>
</g>

<g id="Rocket_ai_0_Layer0_0_MEMBER_0_FILL">
<path fill="#ABB8DE" stroke="none" d="
M 21.55 65.05
Q 21.45 65.7 22 66.15 22.6 66.65 23.45 66.65
L 36.9 66.65
Q 40 66.65 42.35 65.15 44.65 63.65 45 61.4
L 49.7 33.35 27.2 33.35 21.55 65.05 Z"/>
</g>

<g id="Rocket_ai_0_Layer0_0_MEMBER_1_FILL">
<path fill="#B6C5ED" stroke="none" d="
M 45 5.25
Q 44.65 3 42.35 1.5 40 0 36.9 0
L 23.45 0
Q 22.6 0 22 0.5 21.45 0.95 21.55 1.6
L 27.2 33.35 49.7 33.35 45 5.25 Z"/>
</g>

<g id="Rocket_ai_0_Layer0_1_FILL">
<path fill="#B5C9FF" stroke="none" d="
M 11.05 5.3
Q 4.6 5.55 0 6.5
L 0 60.15
Q 4.6 61.1 11.05 61.35
L 11.05 5.3 Z"/>
</g>

<g id="Rocket_ai_0_Layer0_2_FILL">
<path fill="#8FAFFF" stroke="none" d="
M 80.75 26.75
Q 76.75 21.85 70.7 17.3 54.65 5.2 37.6 5.2 13.7 5.2 11.05 5.3
L 11.05 61.35
Q 13.7 61.45 37.6 61.45 54.6 61.45 70.7 49.35 76.7 44.85 80.75 39.95 84.45 35.45 84.45 33.35 84.45 31.2 80.75 26.75 Z"/>
</g>

<g id="Rocket_ai_Assets_Icon__Path__2_0_Layer0_0_FILL">
<path fill="#D2DFFF" stroke="none" d="
M 22.95 10.25
Q 16.6 3.9 9.35 0
L 0 0
Q 5.6 3.85 10.6 10.25
L 22.95 10.25 Z"/>
</g>

<g id="Rocket_ai_Assets_Icon__Path__1_0_Layer0_0_FILL">
<path fill="#E9EFFF" stroke="none" d="
M 16.75 10.25
Q 9.5 3.9 1.2 0
L 0 0
Q 8.05 3.85 15.15 10.25
L 16.75 10.25 Z"/>
</g>

<g id="Rocket_ai_Assets_Icon__Path__0_Layer0_0_FILL">
<path fill="#E9EFFF" stroke="none" d="
M 19.95 10.25
Q 12.85 3.85 4.8 0
L 0 0
Q 7.25 3.9 13.6 10.25
L 19.95 10.25 Z"/>
</g>

<g id="Rocket_ai_0_Layer0_6_MEMBER_0_FILL">
<path fill="#8FAFFF" stroke="none" d="
M 44.4 35.25
L 44.4 31.4 21.55 32.45 21.55 34.2 44.4 35.25 Z"/>
</g>

<g id="Rocket_ai_0_Layer0_6_MEMBER_1_FILL">
<path fill="#D3DFFF" stroke="none" d="
M 40.6 32.3
L 44.4 31.4 26.15 31.4 21.55 32.45 34 32.5
Q 39.8 32.5 40.6 32.3 Z"/>
</g>

<g id="Rocket_ai_0_Layer0_6_MEMBER_2_FILL">
<path fill="#8A99C2" stroke="none" d="
M 44.4 35.25
L 40.6 34.35
Q 39.8 34.15 34 34.15
L 21.55 34.2 26.15 35.25 44.4 35.25 Z"/>
</g>

<path id="FireEffectRed_10_Layer1_0_1_STROKES" stroke="#000000" stroke-width="1" stroke-linejoin="round" stroke-linecap="round" fill="none" d="
M -145.95 -222.95
L 195 -222.95 195 165 -145.95 165 -145.95 -222.95 Z"/>

<path id="FireEffectOrange_10_Layer1_0_1_STROKES" stroke="#000000" stroke-width="1" stroke-linejoin="round" stroke-linecap="round" fill="none" d="
M -165.95 -268.95
L 204 -268.95 204 171 -165.95 171 -165.95 -268.95 Z"/>
</defs>

<g transform="matrix( 1.4999847412109375, -0.0231781005859375, 0.0231781005859375, 1.4999847412109375, -11.8,1.1) ">
<g transform="matrix( 0, -0.322052001953125, 0.322052001953125, 0, 5.95,33.5) ">
<mask id="Mask_Mask_1">
<g transform="matrix( 1, 0, 0, 1, 0,0) ">
<use xlink:href="#Mask_FireEffectRed_10_1_MASK_0_FILL"/>
</g>
</mask>

<g mask="url(#Mask_Mask_1)">
<g transform="matrix( 1, 0, 0, 1, 0,0) ">
<use xlink:href="#FireEffectRed_10_Layer1_0_FILL"/>

<use xlink:href="#FireEffectRed_10_Layer1_0_1_STROKES"/>
</g>
</g>
</g>

<g transform="matrix( 0, -0.297515869140625, 0.23431396484375, 0, 5.2,33.9) ">
<mask id="Mask_Mask_2">
<g transform="matrix( 1, 0, 0, 1, 0,0) ">
<use xlink:href="#Mask_FireEffectOrange_10_1_MASK_0_FILL"/>
</g>
</mask>

<g mask="url(#Mask_Mask_2)">
<g transform="matrix( 1, 0, 0, 1, 0,0) ">
<use xlink:href="#FireEffectOrange_10_Layer1_0_FILL"/>

<use xlink:href="#FireEffectOrange_10_Layer1_0_1_STROKES"/>
</g>
</g>
</g>

<g transform="matrix( 0, -0.248443603515625, 0.1618499755859375, 0, 10.9,33.85) ">
<g transform="matrix( 1, 0, 0, 1, 0,0) ">
<use xlink:href="#FireEffectYellow_10_Layer0_0_FILL"/>
</g>
</g>

<g transform="matrix( 1, 0, 0, 1, 0,0) ">
<g transform="matrix( 1, 0, 0, 1, 0,0) ">
<use xlink:href="#Rocket_ai_0_Layer0_0_MEMBER_0_FILL"/>
</g>

<g transform="matrix( 1, 0, 0, 1, 0,0) ">
<use xlink:href="#Rocket_ai_0_Layer0_0_MEMBER_1_FILL"/>
</g>

<g transform="matrix( 1, 0, 0, 1, 0,0) ">
<use xlink:href="#Rocket_ai_0_Layer0_1_FILL"/>
</g>

<g transform="matrix( 1, 0, 0, 1, 0,0) ">
<use xlink:href="#Rocket_ai_0_Layer0_2_FILL"/>
</g>

<g transform="matrix( 1, 0, 0, 1, 43.8,10.3) ">
<g transform="matrix( 1, 0, 0, 1, 0,0) ">
<use filter="url(#Filter_1)" xlink:href="#Rocket_ai_Assets_Icon__Path__2_0_Layer0_0_FILL"/>
</g>
</g>

<g transform="matrix( 1, 0, 0, 1, 57.95,10.3) ">
<g transform="matrix( 1, 0, 0, 1, 0,0) ">
<use filter="url(#Filter_2)" xlink:href="#Rocket_ai_Assets_Icon__Path__1_0_Layer0_0_FILL"/>
</g>
</g>

<g transform="matrix( 1, 0, 0, 1, 53.15,10.3) ">
<g transform="matrix( 1, 0, 0, 1, 0,0) ">
<use filter="url(#Filter_3)" xlink:href="#Rocket_ai_Assets_Icon__Path__0_Layer0_0_FILL"/>
</g>
</g>

<g transform="matrix( 1, 0, 0, 1, 0,0) ">
<use xlink:href="#Rocket_ai_0_Layer0_6_MEMBER_0_FILL"/>
</g>

<g transform="matrix( 1, 0, 0, 1, 0,0) ">
<use xlink:href="#Rocket_ai_0_Layer0_6_MEMBER_1_FILL"/>
</g>

<g transform="matrix( 1, 0, 0, 1, 0,0) ">
<use xlink:href="#Rocket_ai_0_Layer0_6_MEMBER_2_FILL"/>
</g>
</g>
</g>
</svg>
